<?xml version="1.0" encoding="utf-8"?>
<!-- Generator: Adobe Illustrator 23.0.3, SVG Export Plug-In . SVG Version: 6.00 Build 0)  -->
<svg version="1.1"
	 id="Layer_1" xmlns:cc="http://creativecommons.org/ns#" xmlns:dc="http://purl.org/dc/elements/1.1/" xmlns:inkscape="http://www.inkscape.org/namespaces/inkscape" xmlns:rdf="http://www.w3.org/1999/02/22-rdf-syntax-ns#" xmlns:sodipodi="http://sodipodi.sourceforge.net/DTD/sodipodi-0.dtd" xmlns:svg="http://www.w3.org/2000/svg"
	 xmlns="http://www.w3.org/2000/svg" xmlns:xlink="http://www.w3.org/1999/xlink" x="0px" y="0px" viewBox="0 0 1080 1080"
	 style="enable-background:new 0 0 1080 1080;" xml:space="preserve">
<style type="text/css">
	.st0{fill:none;stroke:#FFFFFF;stroke-width:80;}
	.st1{fill:none;stroke:#FFFFFF;stroke-width:80;stroke-miterlimit:10;}
</style>
<sodipodi:namedview  bordercolor="#666666" borderopacity="1" gridtolerance="10" guidetolerance="10" id="namedview4675" inkscape:current-layer="Layer_1" inkscape:cx="-203.64407" inkscape:cy="540" inkscape:pageopacity="0" inkscape:pageshadow="2" inkscape:snap-bbox="false" inkscape:snap-page="false" inkscape:snap-text-baseline="false" inkscape:window-height="1017" inkscape:window-maximized="1" inkscape:window-width="1920" inkscape:window-x="1912" inkscape:window-y="-8" inkscape:zoom="0.21851852" objecttolerance="10" pagecolor="#ffffff" showgrid="false" showguides="false">
	</sodipodi:namedview>
<path class="st0" d="M653.4,462.8c-57.9-50-115.1-163.8-138.3-268.2c-42.6,37.6-109.4,138.7-97.3,281.5"/>
<g>
	<path class="st1" d="M299.9,861.7c-28.6-18.9-51.1-40.6-51.1-40.6c-19.1-18.4-33-36-42.5-49.5l0,0
		c133.7,18.1,198.3-24.1,221.3-42.4c18.6-14.7,39.2-37,59-58.4c41.9-45.2,66.7-80.1,85.7-105.6C659.3,448.8,705,400.8,745.2,386.6
		c68.6-24.3,117,32,160.2,53.6c0,0,0.2,0.1,0.2,0.1c-0.2,0.1-0.5,0.4-0.8,0.7c-39.6,35.1-56.8,104.8-63.9,179.3
		C830.4,731.4,764,824.2,670,884.3c-58.4,37.3-123.4,58.6-184.3,52.4C401.4,928,306.3,865.9,299.9,861.7z"/>
</g>
<path class="st1" d="M152.8,211.5"/>
<path class="st1" d="M450.4,710.8c-332.9,7.1-254.1-463.4-254.1-463.4c39.2,59.5,53.8,76.5,83.5,112.9
	c56.5,69,95.3,84.4,151.3,119.1c11.6,7.2,28.8,17.1,53.3,34.7c35.1,25.1,61.5,49,78.7,65.6"/>
</svg>
