<?xml version="1.0" encoding="utf-8"?>
<!-- Generator: Adobe Illustrator 19.1.0, SVG Export Plug-In . SVG Version: 6.00 Build 0)  -->
<svg version="1.1" xmlns="http://www.w3.org/2000/svg" xmlns:xlink="http://www.w3.org/1999/xlink" x="0px" y="0px" width="24px"
	 height="24px" viewBox="0 0 24 24" enable-background="new 0 0 24 24" xml:space="preserve">
<g id="Bounding_Boxes">
	<path fill="none" d="M0,0h24v24H0V0z"/>
</g>
<g id="Rounded">
	<path d="M20,6h-8l-1.41-1.41C10.21,4.21,9.7,4,9.17,4H4C2.9,4,2.01,4.9,2.01,6L2,18c0,1.1,0.9,2,2,2h16c1.1,0,2-0.9,2-2V8
		C22,6.9,21.1,6,20,6z M19,18H5c-0.55,0-1-0.45-1-1V9c0-0.55,0.45-1,1-1h14c0.55,0,1,0.45,1,1v8C20,17.55,19.55,18,19,18z"/>
</g>
</svg>
