<?xml version="1.0" encoding="utf-8"?>
<!-- Generator: Adobe Illustrator 22.1.0, SVG Export Plug-In . SVG Version: 6.00 Build 0)  -->
<svg version="1.1" id="Layer_1" xmlns="http://www.w3.org/2000/svg" xmlns:xlink="http://www.w3.org/1999/xlink" x="0px" y="0px"
	 viewBox="0 0 1080 1080" style="enable-background:new 0 0 1080 1080;" xml:space="preserve">
<style type="text/css">
	.st0{fill:#FFFFFF;}
	.st1{fill:#FFFFFF;stroke:#FFFFFF;stroke-width:68;stroke-miterlimit:10;}
	.st2{fill:#FFFFFF;stroke:#FFFFFF;stroke-width:68;stroke-linecap:round;stroke-miterlimit:10;}
</style>
<g>
	<path class="st0" d="M540,162c51.1,0,100.6,10,147.1,29.7c45,19,85.4,46.3,120.2,81c34.7,34.7,62,75.2,81,120.2
		C908,439.4,918,488.9,918,540s-10,100.6-29.7,147.1c-19,45-46.3,85.4-81,120.2c-34.7,34.7-75.2,62-120.2,81
		C640.6,908,591.1,918,540,918s-100.6-10-147.1-29.7c-45-19-85.4-46.3-120.2-81c-34.7-34.7-62-75.2-81-120.2
		C172,640.6,162,591.1,162,540s10-100.6,29.7-147.1c19-45,46.3-85.4,81-120.2c34.7-34.7,75.2-62,120.2-81
		C439.4,172,488.9,162,540,162 M540,94C293.7,94,94,293.7,94,540s199.7,446,446,446s446-199.7,446-446S786.3,94,540,94L540,94z"/>
</g>
<g>
	<line class="st1" x1="674" y1="139" x2="138" y2="675"/>
</g>
<g>
	<line class="st1" x1="946.5" y1="402.5" x2="401.5" y2="947.5"/>
</g>
<g>
	<line class="st2" x1="468" y1="613" x2="251" y2="830"/>
</g>
<g>
	<line class="st2" x1="830" y1="251" x2="614" y2="467"/>
</g>
</svg>
