<?xml version="1.0" encoding="utf-8"?>
<!-- Generator: Adobe Illustrator 19.1.0, SVG Export Plug-In . SVG Version: 6.00 Build 0)  -->
<svg version="1.1" xmlns="http://www.w3.org/2000/svg" xmlns:xlink="http://www.w3.org/1999/xlink" x="0px" y="0px" width="24px"
	 height="24px" viewBox="0 0 24 24" enable-background="new 0 0 24 24" xml:space="preserve">
<g id="Bounding_Boxes" display="none">
	<path display="inline" fill="none" d="M0,0h24v24H0V0z"/>
</g>
<g id="Rounded">
	<path d="M10,16L10,16c0.55,0,1-0.45,1-1V9c0-0.55-0.45-1-1-1h0C9.45,8,9,8.45,9,9v6C9,15.55,9.45,16,10,16z M12,2
		C6.48,2,2,6.48,2,12s4.48,10,10,10s10-4.48,10-10S17.52,2,12,2z M12,20c-4.41,0-8-3.59-8-8s3.59-8,8-8s8,3.59,8,8S16.41,20,12,20z
		 M14,16L14,16c0.55,0,1-0.45,1-1V9c0-0.55-0.45-1-1-1h0c-0.55,0-1,0.45-1,1v6C13,15.55,13.45,16,14,16z"/>
</g>
</svg>
