<?xml version="1.0" encoding="utf-8"?>
<!-- Generator: Adobe Illustrator 19.1.0, SVG Export Plug-In . SVG Version: 6.00 Build 0)  -->
<svg version="1.1" xmlns="http://www.w3.org/2000/svg" xmlns:xlink="http://www.w3.org/1999/xlink" x="0px" y="0px" width="24px"
	 height="24px" viewBox="0 0 24 24" enable-background="new 0 0 24 24" xml:space="preserve">
<g id="Bounding_Boxes" display="none">
	<path display="inline" fill="none" d="M0,0h24v24H0V0z"/>
</g>
<g id="Rounded">
	<path d="M7,6L7,6c0.55,0,1,0.45,1,1v10c0,0.55-0.45,1-1,1h0c-0.55,0-1-0.45-1-1V7C6,6.45,6.45,6,7,6z M10.66,12.82l5.77,4.07
		c0.66,0.47,1.58-0.01,1.58-0.82V7.93c0-0.81-0.91-1.28-1.58-0.82l-5.77,4.07C10.09,11.58,10.09,12.42,10.66,12.82z"/>
</g>
</svg>
