<?xml version="1.0" encoding="utf-8"?>
<!-- Generator: Adobe Illustrator 19.1.0, SVG Export Plug-In . SVG Version: 6.00 Build 0)  -->
<svg version="1.1" xmlns="http://www.w3.org/2000/svg" xmlns:xlink="http://www.w3.org/1999/xlink" x="0px" y="0px" width="24px"
	 height="24px" viewBox="0 0 24 24" enable-background="new 0 0 24 24" xml:space="preserve">
<g id="Bounding_Boxes" display="none">
	<path display="inline" fill="none" d="M0,0h24v24H0V0z"/>
</g>
<g id="Rounded">
	<path d="M7.58,16.89l5.77-4.07c0.56-0.4,0.56-1.24,0-1.63L7.58,7.11C6.91,6.65,6,7.12,6,7.93v8.14C6,16.88,6.91,17.35,7.58,16.89z
		 M16,7v10c0,0.55,0.45,1,1,1h0c0.55,0,1-0.45,1-1V7c0-0.55-0.45-1-1-1h0C16.45,6,16,6.45,16,7z"/>
</g>
</svg>
