<?xml version="1.0" encoding="utf-8"?>
<!-- Generator: Adobe Illustrator 25.4.1, SVG Export Plug-In . SVG Version: 6.00 Build 0)  -->
<svg version="1.1" xmlns="http://www.w3.org/2000/svg" xmlns:xlink="http://www.w3.org/1999/xlink" x="0px" y="0px"
	 viewBox="0 0 1080 1080" style="enable-background:new 0 0 1080 1080;" xml:space="preserve">
<style type="text/css">
	.st0{display:none;}
	.st1{display:inline;opacity:0.47;}
	.st2{fill:none;stroke:#000000;stroke-width:65;stroke-miterlimit:10;}
	.st3{fill:none;stroke:#1A1A1A;stroke-width:75;stroke-miterlimit:10;}
</style>
<g id="Layer_2" class="st0">
	<g id="HSrxGl_00000168819632190777848980000009513939499861441463_" class="st1">
		
			<image style="overflow:visible;" width="960" height="1030" id="HSrxGl_00000133500260802831156080000016050209534137730203_" xlink:href="E4C182D152781118.jpg"  transform="matrix(1.2031 0 0 1.2031 1 -132)">
		</image>
	</g>
</g>
<g id="Layer_1">
	<path class="st2" d="M199,239.6"/>
	<path class="st3" d="M559.1,547.1c5.6-7.1,11.1-14.2,16.7-21.3c85.1-117.8,137.2-153.7,177.2-168.5
		c68.2-25.4,117.7,30.2,161.2,51.1c-0.1,0.1-0.2,0.2-0.4,0.3c0,0,0,0,0,0c0,0.1-0.1,0.1-0.1,0.2c-0.1,0.1-0.1,0.1-0.3,0.3
		c-43.8,23.9-55.8,127.5-55.8,127.5C845.7,639,768.5,750.1,695.3,807c-13.5,10.5-51.2,38-106.7,54.9c0,0-141.9,49.1-287.3-36.8
		c-20.3-12-33.3-21.3-37.7-25.3c-13.2-12.3-25.3-26.2-25.3-26.2c-7.3-8.4-13.3-16.2-18-22.6c37.3,0.9,83.9-1.8,135.8-14.6
		c22.3-5.5,42.6-12,60.7-19c-30.6-22-157.8-118.8-186.8-292c-15.2-90.8,2.8-166.1,16.6-208.3c28.3,50,68.8,110.8,125.8,173
		C438.8,462.4,505.8,513,559.1,547.1z"/>
	<path class="st2" d="M467.4,126.1"/>
	<path class="st3" d="M444.3,472.4c0.2-45.7-0.6-103.1,22.7-172.2c11.4-33.8,29.7-58.9,42.2-77.3c8.3,34.7,20,74.7,36.7,118.1
		c18.9,49.1,55.9,104.5,91.4,143.3"/>
</g>
</svg>
