<?xml version="1.0" encoding="utf-8"?>
<!-- Generator: Adobe Illustrator 25.2.0, SVG Export Plug-In . SVG Version: 6.00 Build 0)  -->
<svg version="1.1" id="Layer_1" xmlns="http://www.w3.org/2000/svg" xmlns:xlink="http://www.w3.org/1999/xlink" x="0px" y="0px"
	 viewBox="0 0 854 358" style="enable-background:new 0 0 854 358;" xml:space="preserve">
<style type="text/css">
	.st0{fill:url(#SVGID_1_);}
	.st1{fill:none;stroke:#000000;stroke-width:11;}
	.st2{fill:none;stroke:#000000;stroke-width:11;stroke-miterlimit:10;}
</style>
<linearGradient id="SVGID_1_" gradientUnits="userSpaceOnUse" x1="427" y1="358.1317" x2="427" y2="-9.094947e-13">
	<stop  offset="0" style="stop-color:#EF9135"/>
	<stop  offset="1" style="stop-color:#E74E8E"/>
</linearGradient>
<path class="st0" d="M806.17,358.13H47.83C21.42,358.13,0,336.72,0,310.3V47.83C0,21.42,21.42,0,47.83,0h758.33
	C832.58,0,854,21.42,854,47.83V310.3C854,336.72,832.58,358.13,806.17,358.13z"/>
<g>
	<g>
		<path d="M384.36,145.54h45.29v11.92h-30.83v16.3h27.82v11.92h-27.82v28.26h-14.46V145.54z"/>
		<path d="M436.21,148.81c0-3.94,3.47-7.18,7.68-7.18c4.24,0,7.72,3.24,7.72,7.18c0,3.97-3.47,7.21-7.72,7.21
			C439.69,156.03,436.21,152.79,436.21,148.81z M436.75,162.64h14.23v51.3h-14.23V162.64z"/>
		<path d="M459.98,162.64h13.79v8.95h0.54c1.87-6.35,6.58-9.69,12.33-9.69c1.44,0,3.21,0.2,4.48,0.5v12.63
			c-1.34-0.43-4.04-0.77-6.01-0.77c-6.28,0-10.89,4.34-10.89,10.65v29.03h-14.23V162.64z"/>
		<path d="M491.59,188.53c0-15.83,9.79-26.55,24.88-26.55c13.56,0,24.12,8.62,24.12,26.05v3.91h-34.94v0.03
			c0,7.65,4.51,12.36,11.62,12.36c4.74,0,8.42-2.04,9.85-5.95l13.16,0.87c-2,9.52-10.55,15.7-23.25,15.7
			C501.25,214.95,491.59,204.79,491.59,188.53z M527.2,183.12c-0.03-6.11-4.31-10.52-10.49-10.52c-6.31,0-10.76,4.68-11.06,10.52
			H527.2z"/>
		<path d="M574.81,173.33h-9.65v24.85c0,3.94,1.97,5.01,4.81,5.01c1.34,0,2.84-0.33,3.54-0.47l2.24,10.59
			c-1.44,0.47-4.04,1.2-7.72,1.34c-10.32,0.43-17.17-4.54-17.1-14.6v-26.72h-7.01v-10.69h7.01v-12.29h14.23v12.29h9.65V173.33z"/>
		<path d="M579.3,199.62c0-11.46,9.12-14.86,19.27-15.8c8.92-0.87,12.43-1.3,12.43-4.61v-0.2c0-4.21-2.77-6.65-7.62-6.65
			c-5.11,0-8.15,2.51-9.12,5.91l-13.16-1.07c1.97-9.35,10.05-15.23,22.35-15.23c11.42,0,21.78,5.14,21.78,17.37v34.6h-13.49v-7.11
			h-0.4c-2.51,4.78-7.42,8.08-15,8.08C586.55,214.91,579.3,209.77,579.3,199.62z M611.1,195.61v-5.44c-1.7,1.14-6.78,1.87-9.89,2.3
			c-5.01,0.7-8.32,2.67-8.32,6.68c0,3.91,3.14,5.95,7.51,5.95C606.66,205.09,611.1,200.98,611.1,195.61z"/>
		<path d="M633.39,148.81c0-3.94,3.47-7.18,7.68-7.18c4.24,0,7.72,3.24,7.72,7.18c0,3.97-3.47,7.21-7.72,7.21
			C636.86,156.03,633.39,152.79,633.39,148.81z M633.92,162.64h14.23v51.3h-14.23V162.64z"/>
		<path d="M671.38,213.94h-14.23v-68.41h14.23V213.94z"/>
	</g>
	<g>
		<path class="st1" d="M272.6,151.62c-10.71-9.25-21.3-30.31-25.59-49.62c-7.88,6.96-20.24,25.66-18,52.08"/>
		<path class="st2" d="M207.19,225.42c-3.35-2.24-6.5-4.76-9.44-7.51c-2.9-2.8-5.53-5.86-7.85-9.16l0,0
			c24.74,3.35,36.69-4.46,40.94-7.85c3.44-2.71,7.25-6.84,10.92-10.81c7.73-8.36,12.31-14.81,15.82-19.53
			c16.1-21.54,24.55-30.42,31.99-33.03c12.69-4.5,21.66,5.92,29.64,9.92l0.04,0.02c-0.05,0.04-0.1,0.08-0.15,0.13
			c-7.33,6.5-10.51,19.39-11.82,33.17c-1.93,20.54-14.23,37.71-31.61,48.83c-10.81,6.9-22.83,10.84-34.1,9.7
			C225.97,237.69,208.38,226.2,207.19,225.42z"/>
		<path class="st2" d="M235.04,197.51c-61.59,1.31-47.01-85.74-47.01-85.74c7.25,11.01,9.95,14.15,15.45,20.89
			c10.45,12.77,17.63,15.62,27.99,22.04c2.15,1.33,5.33,3.16,9.86,6.42c5.15,3.68,10.01,7.74,14.56,12.14"/>
	</g>
</g>
</svg>
