<?xml version="1.0" encoding="utf-8"?>
<!-- Generator: Adobe Illustrator 23.0.6, SVG Export Plug-In . SVG Version: 6.00 Build 0)  -->
<svg version="1.1" id="Layer_1" xmlns="http://www.w3.org/2000/svg" xmlns:xlink="http://www.w3.org/1999/xlink" x="0px" y="0px"
	 viewBox="0 0 512 512" style="enable-background:new 0 0 512 512;" xml:space="preserve">
<style type="text/css">
	.st0{clip-path:url(#SVGID_2_);}
	.st1{fill:none;stroke:#000000;stroke-width:1.5;stroke-miterlimit:10;}
	.st2{fill:none;stroke:#FFFFFF;stroke-width:2;stroke-miterlimit:10;}
	.st3{opacity:0.75;}
	.st4{fill:none;stroke:#FFFFFF;stroke-width:25;stroke-miterlimit:10;}
</style>
<g>
	<g>
		<g>
			<defs>
				<circle id="SVGID_1_" cx="256" cy="256" r="244.6"/>
			</defs>
			<clipPath id="SVGID_2_">
				<use xlink:href="#SVGID_1_"  style="overflow:visible;"/>
			</clipPath>
			<g class="st0">
				<g>
					<defs>
						<rect id="SVGID_3_" x="6.4" y="6.4" width="499.3" height="499.3"/>
					</defs>
					<clipPath id="SVGID_4_">
						<use xlink:href="#SVGID_3_"  style="overflow:visible;"/>
					</clipPath>
					<g style="clip-path:url(#SVGID_4_);">
						
							<image style="overflow:visible;" width="1041" height="1041" xlink:href="43AC3783.jpg"  transform="matrix(0.48 0 0 0.48 6.24 6.08)">
						</image>
					</g>
				</g>
			</g>
		</g>
	</g>
</g>
<path class="st1" d="M246.4,247.9"/>
<path class="st2" d="M244.9,245.5"/>
<g class="st3">
	
		<image style="overflow:visible;opacity:0.6;" width="442" height="439" xlink:href="43AC3781.png"  transform="matrix(1 0 0 1 47 35)">
	</image>
	<g>
		<g>
			<path class="st4" d="M304.5,216.7c-22-19-43.7-62.2-52.6-101.9c-16.2,14.3-41.6,52.7-37,107"/>
			<g>
				<path class="st4" d="M170.1,368.3c-10.9-7.2-19.4-15.4-19.4-15.4c-7.3-7-12.5-13.7-16.2-18.8l0,0c50.8,6.9,75.4-9.2,84.1-16.1
					c7.1-5.6,14.9-14.1,22.4-22.2c15.9-17.2,25.3-30.4,32.6-40.1c33.1-44.2,50.4-62.5,65.7-67.9c26.1-9.2,44.5,12.2,60.9,20.4l0.1,0
					c-0.1,0-0.2,0.2-0.3,0.3c-15,13.3-21.6,39.8-24.3,68.1c-4,42.2-29.2,77.5-64.9,100.3c-22.2,14.2-46.9,22.3-70,19.9
					C208.7,393.5,172.6,369.9,170.1,368.3z"/>
			</g>
			<path class="st4" d="M227.3,311c-126.5,2.7-96.6-176.1-96.6-176.1c14.9,22.6,20.4,29.1,31.7,42.9C184,204,198.7,209.8,220,223
				c4.4,2.7,10.9,6.5,20.3,13.2c13.3,9.5,23.4,18.6,29.9,24.9"/>
		</g>
	</g>
</g>
</svg>
