<?xml version="1.0" encoding="utf-8"?>
<!-- Generator: Adobe Illustrator 23.0.6, SVG Export Plug-In . SVG Version: 6.00 Build 0)  -->
<svg version="1.1" id="Layer_1" xmlns="http://www.w3.org/2000/svg" xmlns:xlink="http://www.w3.org/1999/xlink" x="0px" y="0px"
	 viewBox="0 0 1080 1180" style="enable-background:new 0 0 1080 1180;" xml:space="preserve">
<style type="text/css">
	.st0{fill:none;stroke:#FFFFFF;stroke-width:15;stroke-linecap:round;stroke-linejoin:round;stroke-miterlimit:10;}
</style>
<path class="st0" d="M448.5,341c0,0-33,0-33-62c0-52,33.03-52.01,33.01-52.01C412.5,232,355.5,240,298.5,227"/>
<path class="st0" d="M448.5,227c7,0,34.5,0,34.5,57c0,57.01-30.5,57-34.5,57"/>
<line class="st0" x1="342.5" y1="644" x2="342.5" y2="1098.5"/>
<line class="st0" x1="342.5" y1="348" x2="342.5" y2="520"/>
<line class="st0" x1="91.5" y1="113" x2="91.5" y2="1098.5"/>
<path class="st0" d="M298.5,359c53-21,93.29-17.74,150.29-17.74"/>
<line class="st0" x1="342.5" y1="233.29" x2="342.5" y2="65"/>
<g>
	<path class="st0" d="M462.5,711c-15,11-58.12,2.91-74-9c-24-18-26-21-47-58"/>
	<path class="st0" d="M371.89,452.9c15.63,5.61,47.89,10.08,58.14,32.91c6.02,13.37,4.93,36.13-3.35,85.41
		c-1.83,10.78-4.62,25.24-5.91,46.39c-0.62,10.01-1.27,20.42-0.51,28.54c0.91,10.07,5.76,36.15,42.01,65.1"/>
	<path class="st0" d="M343.5,527c27-20,29.07-55.92,28.39-74.1"/>
</g>
<path class="st0" d="M420.5,646c-190,30-135.09-176.5-135.09-176.5c10.97,16.65,15.05,21.4,23.36,31.58
	c15.81,19.3,26.66,23.61,42.33,33.32c3.25,2.01,8.06,4.78,14.91,9.71c31.5,18.89,51.68,47.25,56.5,51.89"/>
<path class="st0" d="M319.12,553.81"/>
<polyline class="st0" points="295.5,614 273.85,631.56 302.5,680 255.85,697.96 "/>
<polyline class="st0" points="278.5,516 242.5,486 208.5,512 190.5,469 215.5,440 "/>
<polyline class="st0" points="280.5,563 216.5,585 182.5,564 159.5,629 "/>
<line class="st0" x1="166.5" y1="1098" x2="166.5" y2="1001"/>
<line class="st0" x1="275.5" y1="975" x2="275.5" y2="867"/>
<line class="st0" x1="166.5" y1="202" x2="166.5" y2="306"/>
<line class="st0" x1="262.5" y1="126" x2="262.5" y2="183"/>
<line class="st0" x1="166.5" y1="840" x2="166.5" y2="747"/>
<line class="st0" x1="522" y1="573.5" x2="690" y2="573.5"/>
<line class="st0" x1="522" y1="511.5" x2="646" y2="511.5"/>
<line class="st0" x1="522" y1="628.5" x2="617.5" y2="628.5"/>
<path class="st0" d="M395,818.5c-6.54-0.33-13.93-24.6-16-40c-1.9-14.15,0.39-27.89,5-30c5.06-2.31,20.08,13.85,23,27
	C413,802.5,401.93,818.85,395,818.5z"/>
<path class="st0" d="M417.69,374.32c4.18,5.04-8.7,26.9-18.65,38.84c-9.14,10.97-20.81,18.58-25.48,16.6
	c-5.12-2.16-3.38-24.16,4.34-35.2C393.73,371.88,413.26,368.98,417.69,374.32z"/>
<path class="st0" d="M483.7,439.09c0.43-6.53,24.81-13.55,40.24-15.39c14.18-1.69,27.88,0.81,29.92,5.46
	c2.23,5.09-14.15,19.86-27.35,22.59C499.42,457.33,483.24,446.01,483.7,439.09z"/>
<path class="st0" d="M529.66,822.58c-3.95-5.21-28.17,2.35-42.06,9.32c-12.76,6.4-22.82,16.04-21.96,21.04
	c0.94,5.48,22.76,8.78,35.27,3.78C526.58,846.47,533.85,828.11,529.66,822.58z"/>
<path class="st0" d="M561.5,696c-6.5-0.75-17.77,21.99-22.33,36.84c-4.19,13.65-4.18,27.58,0.02,30.41
	c4.61,3.11,22.07-10.38,27.11-22.87C576.64,714.73,568.39,696.79,561.5,696z"/>
</svg>
