<?xml version="1.0" encoding="utf-8"?>
<!-- Generator: Adobe Illustrator 23.0.6, SVG Export Plug-In . SVG Version: 6.00 Build 0)  -->
<svg version="1.1"
	 id="Layer_1" xmlns:cc="http://creativecommons.org/ns#" xmlns:dc="http://purl.org/dc/elements/1.1/" xmlns:inkscape="http://www.inkscape.org/namespaces/inkscape" xmlns:rdf="http://www.w3.org/1999/02/22-rdf-syntax-ns#" xmlns:sodipodi="http://sodipodi.sourceforge.net/DTD/sodipodi-0.dtd" xmlns:svg="http://www.w3.org/2000/svg"
	 xmlns="http://www.w3.org/2000/svg" xmlns:xlink="http://www.w3.org/1999/xlink" x="0px" y="0px" viewBox="0 0 1080 1080"
	 style="enable-background:new 0 0 1080 1080;" xml:space="preserve">
<style type="text/css">
	.st0{fill:url(#circle13_1_);}
	.st1{fill:none;stroke:url(#path4632_1_);stroke-width:50;stroke-miterlimit:10;}
	.st2{fill:none;stroke:url(#path4639_1_);stroke-width:50;stroke-miterlimit:10;}
</style>
<linearGradient id="circle13_1_" gradientUnits="userSpaceOnUse" x1="212.4452" y1="186.2998" x2="974.2249" y2="1008.8846">
	<stop  offset="0" style="stop-color:#41B883"/>
	<stop  offset="1" style="stop-color:#35495E"/>
</linearGradient>
<circle id="circle13" class="st0" cx="540" cy="540" r="485"/>
<linearGradient id="path4632_1_" gradientUnits="userSpaceOnUse" x1="228.0699" y1="279.5761" x2="590.6871" y2="533.4834">
	<stop  offset="0" style="stop-color:#FFFFFF"/>
	<stop  offset="1" style="stop-color:#85C5A9"/>
</linearGradient>
<path id="path4632" inkscape:connector-curvature="0" class="st1" d="M471.2,641.1C233.8,646.2,290,310.7,290,310.7
	c28,42.5,38.3,54.6,59.6,80.5c40.3,49.2,68,60.2,107.9,84.9c8.3,5.1,20.5,12.2,38,24.7c25,17.9,43.9,34.9,56.1,46.8l64.3-83.4
	c-41.3-35.7-82.1-116.8-98.6-191.3c-30.4,26.8-78,98.9-69.4,200.7"/>
<g id="g4641" transform="translate(2.0000001e-6,-4.3e-6)">
	
		<linearGradient id="path4639_1_" gradientUnits="userSpaceOnUse" x1="488.5824" y1="597.6637" x2="682.582" y2="320.6033" gradientTransform="matrix(1 0 0 -1 -2.000000e-06 1080)">
		<stop  offset="0" style="stop-color:#FFFFFF"/>
		<stop  offset="1" style="stop-color:#85ADA9"/>
	</linearGradient>
	<path id="path4639" inkscape:connector-curvature="0" class="st2" d="M363.9,750.7c-20.4-13.5-36.4-29-36.4-29
		c-13.6-13.1-23.5-25.7-30.3-35.3l0,0c95.3,12.9,141.4-17.2,157.8-30.2c13.2-10.5,27.9-26.4,42.1-41.6
		c29.9-32.2,47.5-57.1,61.2-75.3c62-83,94.6-117.3,123.2-127.4c48.9-17.3,86.5,15.1,114.3,38.2l0.1,0.1c-0.1,0.1-0.3,0.3-0.6,0.5
		c-28.2,25-40.5,74.7-45.6,127.9c-7.5,79.2-54.8,145.4-121.9,188.3c-41.7,26.6-88,41.8-131.5,37.3
		C436.3,798,368.5,753.8,363.9,750.7L363.9,750.7z"/>
</g>
</svg>
