<?xml version="1.0" encoding="utf-8"?>
<!-- Generator: Adobe Illustrator 24.1.3, SVG Export Plug-In . SVG Version: 6.00 Build 0)  -->
<svg version="1.1" id="Layer_1" xmlns="http://www.w3.org/2000/svg" xmlns:xlink="http://www.w3.org/1999/xlink" x="0px" y="0px"
	 viewBox="0 0 1080 1080" style="enable-background:new 0 0 1080 1080;" xml:space="preserve">
<style type="text/css">
	.st0{display:none;}
	.st1{display:inline;fill:none;stroke:url(#SVGID_1_);stroke-width:55;stroke-miterlimit:10;}
	.st2{display:inline;}
	.st3{fill:none;stroke:#B3B3B3;stroke-width:2;stroke-miterlimit:10;}
	.st4{fill:none;stroke:url(#SVGID_2_);stroke-width:45;stroke-miterlimit:10;}
	.st5{fill:none;stroke:url(#SVGID_3_);stroke-width:45;stroke-miterlimit:10;}
</style>
<g id="Layer_1_1_" class="st0">
	
		<linearGradient id="SVGID_1_" gradientUnits="userSpaceOnUse" x1="82" y1="-379.1" x2="82" y2="-767.1" gradientTransform="matrix(1 0 0 1 0 1032)">
		<stop  offset="0" style="stop-color:#EF9135"/>
		<stop  offset="1" style="stop-color:#E74E8E"/>
	</linearGradient>
	<path class="st1" d="M82,264.9v388"/>
	<g class="st2">
		<circle class="st3" cx="540" cy="540" r="93.5"/>
		<circle class="st3" cx="540" cy="540" r="148.5"/>
		<circle class="st3" cx="540" cy="540" r="296.5"/>
		<circle class="st3" cx="540" cy="540" r="241.5"/>
		<rect x="243.5" y="243.5" class="st3" width="593" height="593"/>
		<line class="st3" x1="540" y1="243" x2="540" y2="837"/>
		<line class="st3" x1="837" y1="540" x2="243" y2="540"/>
		<line class="st3" x1="836.5" y1="243.5" x2="243.5" y2="836.5"/>
		<line class="st3" x1="243.5" y1="243.5" x2="836.5" y2="836.5"/>
		<rect x="298.5" y="298.5" class="st3" width="483" height="483"/>
		<rect x="391.5" y="391.5" class="st3" width="297" height="297"/>
	</g>
</g>
<g id="Layer_2_1_">
	
		<linearGradient id="SVGID_2_" gradientUnits="userSpaceOnUse" x1="540" y1="397.5" x2="540" y2="682.5" gradientTransform="matrix(1 0 0 -1 0 1080)">
		<stop  offset="0" style="stop-color:#EF9135"/>
		<stop  offset="1" style="stop-color:#E74E8E"/>
	</linearGradient>
	<circle class="st4" cx="540" cy="540" r="120"/>
	
		<linearGradient id="SVGID_3_" gradientUnits="userSpaceOnUse" x1="540" y1="249" x2="540" y2="831" gradientTransform="matrix(1 0 0 -1 0 1080)">
		<stop  offset="0" style="stop-color:#EF9135"/>
		<stop  offset="1" style="stop-color:#E74E8E"/>
	</linearGradient>
	<path class="st5" d="M808.5,540c0,148.3-120.2,268.5-268.5,268.5S271.5,688.3,271.5,540S391.7,271.5,540,271.5"/>
</g>
</svg>
