<?xml version="1.0" encoding="utf-8"?>
<!-- Generator: Adobe Illustrator 25.2.1, SVG Export Plug-In . SVG Version: 6.00 Build 0)  -->
<svg version="1.1" id="Layer_1" xmlns="http://www.w3.org/2000/svg" xmlns:xlink="http://www.w3.org/1999/xlink" x="0px" y="0px"
	 viewBox="0 0 730.6 1180" style="enable-background:new 0 0 730.6 1180;" xml:space="preserve">
<style type="text/css">
	.st0{fill:none;stroke:#845E34;stroke-width:13;stroke-miterlimit:10;}
	.st1{fill:none;stroke:#D3D3D3;stroke-width:13;stroke-miterlimit:10;}
	.st2{fill:none;stroke:#D63A3A;stroke-width:13;stroke-miterlimit:10;}
	.st3{fill:#D63A3A;}
	.st4{fill:none;stroke:#000000;stroke-width:13;stroke-miterlimit:10;}
	.st5{fill:none;stroke:#4D4D4D;stroke-width:13;stroke-miterlimit:10;}
	.st6{fill:none;stroke:#56C93A;stroke-width:13;stroke-miterlimit:10;}
</style>
<g>
	<path class="st0" d="M448.5,227.3c7,0,34.5,0,34.5,57s-30.5,57-34.5,57c0,0-33,0-33-62C415.5,227.3,448.5,227.2,448.5,227.3
		c-36,5-93,13-150,0"/>
	<line class="st0" x1="91.5" y1="65" x2="91.5" y2="1098.5"/>
	<path class="st0" d="M298.5,359c53-21,93.3-17.7,150.3-17.7"/>
	<polyline class="st0" points="298.5,611.5 273.9,631.6 302.5,680 255.9,698 	"/>
	<polyline class="st0" points="278.5,516 242.5,486 208.5,512 190.5,469 215.5,440 	"/>
	<polyline class="st0" points="280.5,563 216.5,585 182.5,564 159.5,629 	"/>
	<line class="st0" x1="166.5" y1="1081.8" x2="166.5" y2="1001"/>
	<line class="st0" x1="275.5" y1="975" x2="275.5" y2="867"/>
	<line class="st0" x1="166.5" y1="202" x2="166.5" y2="306"/>
	<line class="st0" x1="262.5" y1="126" x2="262.5" y2="183"/>
	<line class="st0" x1="166.5" y1="840" x2="166.5" y2="747"/>
	<line class="st0" x1="342.5" y1="644" x2="342.5" y2="1098.5"/>
	<line class="st0" x1="342.5" y1="348" x2="342.5" y2="529.2"/>
	<line class="st0" x1="342.5" y1="233.3" x2="342.5" y2="65"/>
</g>
<g>
	<path class="st1" d="M408.4,711.3c-8.1-2.5-15.2-5.7-20-9.3c-14.2-10.6-20.3-16-27.3-26.3c-4.8-7.1-10-18.2-18.6-33.3"/>
	<path class="st1" d="M342.5,529.2c22.4-16.6,28.6-46.2,29.4-65.5c0.2-4,0.1-7.7,0-10.8c3.4,1.2,7.5,2.4,12,3.7
		c16.5,4.7,38.1,11.4,46.1,29.2c6,13.4,4.9,36.1-3.4,85.4c-1.8,10.8-4.6,25.2-5.9,46.4c-0.6,10-1.3,20.4-0.5,28.5
		c0.6,6.4,2.8,19.4,13.7,35.4"/>
	<path class="st2" d="M433.9,681.5c6.2,9.1,15.2,19.2,28.3,29.7c-10.5,7.7-34.8,5.9-53.8,0.1"/>
	<g>
		<path class="st3" d="M378.8,462.2L378.8,462.2L365,464c0-0.9,0.1-1.8,0.1-2.6c0-2.6,0-5.4-0.1-8.1l-0.4-10.1l9.6,3.5
			c2.2,0.8,4.9,1.6,7.1,2.2L378.8,462.2z"/>
	</g>
</g>
<path class="st1" d="M376.4,649.3c-139.4-14.7-90.9-179.8-90.9-179.8c11,16.6,15,21.4,23.4,31.6c15.8,19.3,26.7,23.6,42.3,33.3
	c0,0,0.1,0,0.1,0.1c8.6,5.3,16.8,11.5,24.3,18.3l16.1,14.7"/>
<path class="st4" d="M319.1,553.8"/>
<line class="st5" x1="522" y1="573.5" x2="690" y2="573.5"/>
<line class="st5" x1="497.1" y1="511.5" x2="646" y2="511.5"/>
<line class="st5" x1="497.1" y1="628.5" x2="617.5" y2="628.5"/>
<path class="st6" d="M562.1,411.3L562.1,411.3c-29-14.8-55.5-5.4-67.6,24.1l-1.3,3.1l0,0C522.6,450.6,548.8,440.2,562.1,411.3
	L562.1,411.3z"/>
<path class="st6" d="M448.3,367.3L448.3,367.3c-32.6,0.7-51.5,21.6-48.1,53.3l0.4,3.4l0,0C432.2,420.6,450.4,399,448.3,367.3
	L448.3,367.3z"/>
<path class="st6" d="M561.4,699.3L561.4,699.3c-31,10.2-42.9,35.6-30.5,65l1.3,3.1l0,0C561.5,755,572.6,729.1,561.4,699.3
	L561.4,699.3z"/>
<path class="st6" d="M532,822.3L532,822.3c-28.6-15.7-55.4-7.1-68.4,22.1l-1.4,3.1l0,0C491.3,860.3,517.9,850.7,532,822.3L532,822.3
	z"/>
<path class="st6" d="M407.6,748.3L407.6,748.3c-26.6,18.8-30.6,46.7-10,71.1l2.2,2.6l0,0C424,801.5,427,773.5,407.6,748.3
	L407.6,748.3z"/>
</svg>
