<svg xmlns="http://www.w3.org/2000/svg" xmlns:xlink="http://www.w3.org/1999/xlink" viewBox="0 0 1080 1080"><defs><style>.a{fill:url(#a);}.b,.c{fill:none;stroke:#221f1f;stroke-width:40px;}.c{stroke-miterlimit:10;}</style><linearGradient id="a" x1="540" y1="1040" x2="540" y2="40" gradientUnits="userSpaceOnUse"><stop offset="0" stop-color="#ef9135"/><stop offset="1" stop-color="#e74e8e"/></linearGradient></defs><title>firetail-new</title><circle class="a" cx="540" cy="540" r="500"/><path class="b" d="M609.45,479.75c-39.57-34.17-78.66-111.94-94.51-183.28-29.11,25.69-74.76,94.78-66.49,192.37"/><path class="c" d="M367.88,752.35A275,275,0,0,1,333,724.6a234.44,234.44,0,0,1-29-33.82h0c91.37,12.37,135.52-16.47,151.23-29,12.71-10,26.79-25.28,40.32-39.91C524.1,591,541,567.15,554,549.73c59.45-79.55,90.68-112.35,118.15-122,46.88-16.61,80,21.86,109.48,36.63l.14.06a3.36,3.36,0,0,0-.55.48c-27.06,24-38.81,71.62-43.67,122.53C730.41,663.31,685,726.72,620.79,767.79c-39.91,25.49-84.33,40.05-125.94,35.81C437.24,797.66,372.25,755.22,367.88,752.35Z"/><path class="c" d="M470.72,649.23c-227.49,4.85-173.64-316.68-173.64-316.68,26.79,40.66,36.76,52.28,57.06,77.15,38.61,47.16,65.13,57.68,103.39,81.39,7.93,4.92,19.69,11.69,36.43,23.72a474.26,474.26,0,0,1,53.78,44.83"/></svg>