<?xml version="1.0" encoding="utf-8"?>
<!-- Generator: Adobe Illustrator 27.1.0, SVG Export Plug-In . SVG Version: 6.00 Build 0)  -->
<svg version="1.1" id="Layer_1" xmlns="http://www.w3.org/2000/svg" xmlns:xlink="http://www.w3.org/1999/xlink" x="0px" y="0px"
	 viewBox="0 0 1080 1080" style="enable-background:new 0 0 1080 1080;" xml:space="preserve">
<style type="text/css">
	.st0{display:none;}
	.st1{display:inline;opacity:0.47;}
	.st2{fill:none;stroke:#000000;stroke-width:65;stroke-miterlimit:10;}
	.st3{fill:none;stroke:#1A1A1A;stroke-width:75;stroke-miterlimit:10;}
</style>
<g id="Layer_2_00000164510415407167653320000016231197259714269847_" class="st0">
	<g id="HSrxGl_00000168819632190777848980000009513939499861441463_" class="st1">
	</g>
</g>
<g id="Layer_1_00000016047724260059593690000007118146636118440115_">
	<path class="st2" d="M199,239.6"/>
	<path class="st3" d="M914.2,408.4c-43.8,23.9-56.6,128.3-56.6,128.3C845.7,639,768.5,750.1,695.3,807
		c-13.5,10.5-51.2,38-106.7,54.9c0,0-141.9,49.1-287.3-36.8c-20.3-12-33.3-21.3-37.7-25.3c-13.2-12.3-25.3-26.2-25.3-26.2
		c-7.3-8.4-13.3-16.2-18-22.6c37.3,0.9,83.9-1.8,135.8-14.6c22.3-5.5,42.6-12,60.7-19c-30.6-22-157.8-118.8-186.8-292
		c-15.2-90.8,2.8-166.1,16.6-208.3c28.3,50,68.8,110.8,125.8,173c66.4,72.3,133.4,122.9,186.7,157c5.6-7.1,11.1-14.2,16.7-21.3
		C660.9,408,713,372.1,753,357.3C821.2,331.9,870.7,387.5,914.2,408.4L914.2,408.4z"/>
	<path class="st2" d="M467.4,126.1"/>
	<path class="st3" d="M444.3,472.4c0.2-45.7-0.6-103.1,22.7-172.2c11.4-33.8,29.7-58.9,42.2-77.3c8.3,34.7,20,74.7,36.7,118.1
		c18.9,49.1,55.9,104.5,91.4,143.3"/>
</g>
</svg>
