<?xml version="1.0" encoding="utf-8"?>
<!-- Generator: Adobe Illustrator 25.2.1, SVG Export Plug-In . SVG Version: 6.00 Build 0)  -->
<svg version="1.1"
	 id="svg8" sodipodi:docname="songs-banner.svg" xmlns:cc="http://creativecommons.org/ns#" xmlns:dc="http://purl.org/dc/elements/1.1/" xmlns:inkscape="http://www.inkscape.org/namespaces/inkscape" xmlns:rdf="http://www.w3.org/1999/02/22-rdf-syntax-ns#" xmlns:sodipodi="http://sodipodi.sourceforge.net/DTD/sodipodi-0.dtd" xmlns:svg="http://www.w3.org/2000/svg"
	 xmlns="http://www.w3.org/2000/svg" xmlns:xlink="http://www.w3.org/1999/xlink" x="0px" y="0px" viewBox="0 0 255.1 118.8"
	 style="enable-background:new 0 0 255.1 118.8;" xml:space="preserve">
<style type="text/css">
	.st0{fill:#FFCAAC;}
	.st1{fill:none;stroke:#3A2B23;stroke-width:3;stroke-miterlimit:5.6693;}
	.st2{fill:#D89B9B;}
	.st3{fill:#A35555;}
	.st4{fill:#553C46;}
</style>
<rect class="st0" width="255.1" height="155.9"/>
<sodipodi:namedview  bordercolor="#666666" borderopacity="1.0" id="base" inkscape:current-layer="layer1" inkscape:cx="268.19443" inkscape:cy="169.11336" inkscape:document-rotation="0" inkscape:document-units="mm" inkscape:guide-bbox="true" inkscape:pageopacity="0.0" inkscape:pageshadow="2" inkscape:window-height="1043" inkscape:window-maximized="1" inkscape:window-width="1920" inkscape:window-x="1920" inkscape:window-y="0" inkscape:zoom="1.8101934" pagecolor="#ffffff" scale-x="5" showgrid="false" showguides="true" units="mm">
	<sodipodi:guide  id="guide2566" orientation="1,0" position="-133.3252,188.70036"></sodipodi:guide>
</sodipodi:namedview>
<g id="layer1" inkscape:groupmode="layer" inkscape:label="Layer 1">
	<path id="path10" class="st1" d="M237.7,70.7l-2.3-9l-6.9,13.6c-1,2.1-3.6,2.9-5.6,1.8c-2.1-1-2.9-3.6-1.8-5.6
		c1-2.1,3.6-2.9,5.6-1.8"/>
</g>
<g>
	<path class="st1" d="M115.8,0.4c3.5,2,0.5,7.2,3.9,9.2c3.5,2,6.5-3.2,9.9-1.2c3.5,2,0.5,7.2,3.9,9.2c3.5,2,6.5-3.2,9.9-1.2
		c3.5,2,0.5,7.2,3.9,9.2c3.5,2,6.5-3.2,9.9-1.2c3.5,2,0.5,7.2,3.9,9.2c3.5,2,6.5-3.2,9.9-1.2c3.5,2,0.5,7.2,3.9,9.2
		c3.5,2,6.5-3.2,9.9-1.2c3.5,2,0.5,7.2,3.9,9.2c3.5,2,6.5-3.2,9.9-1.2c3.5,2,0.5,7.2,3.9,9.2c3.5,2,6.5-3.2,9.9-1.2
		c3.5,2,0.5,7.2,3.9,9.2"/>
</g>
<g>
	<path class="st1" d="M82.4-3.9c3.5,2,0.5,7.2,3.9,9.2c3.5,2,6.5-3.2,9.9-1.2c3.5,2,0.5,7.2,3.9,9.2c3.5,2,6.5-3.2,9.9-1.2
		c3.5,2,0.5,7.2,3.9,9.2c3.5,2,6.5-3.2,9.9-1.2c3.5,2,0.5,7.2,3.9,9.2c3.5,2,6.5-3.2,9.9-1.2c3.5,2,0.5,7.2,3.9,9.2
		c3.5,2,6.5-3.2,9.9-1.2c3.5,2,0.5,7.2,3.9,9.2c3.5,2,6.5-3.2,9.9-1.2c3.5,2,0.5,7.2,3.9,9.2c3.5,2,6.5-3.2,9.9-1.2
		c3.5,2,0.5,7.2,3.9,9.2"/>
</g>
<g>
	<path class="st1" d="M107.7-19.2c3.5,2,0.5,7.2,3.9,9.2c3.5,2,6.5-3.2,9.9-1.2c3.5,2,0.5,7.2,3.9,9.2c3.5,2,6.5-3.2,9.9-1.2
		c3.5,2,0.5,7.2,3.9,9.2c3.5,2,6.5-3.2,9.9-1.2c3.5,2,0.5,7.2,3.9,9.2c3.5,2,6.5-3.2,9.9-1.2c3.5,2,0.5,7.2,3.9,9.2
		c3.5,2,6.5-3.2,9.9-1.2c3.5,2,0.5,7.2,3.9,9.2c3.5,2,6.5-3.2,9.9-1.2c3.5,2,0.5,7.2,3.9,9.2c3.5,2,6.5-3.2,9.9-1.2
		c3.5,2,0.5,7.2,3.9,9.2"/>
</g>
<path class="st2" d="M58.1-6.2c22.2,36.7,23.7,50.7,18.8,55.7C70.5,56,55.1,45,42.7,53.8c-11.6,8.3-6,23.6-17.2,30.2
	c-11.1,6.5-27-2.1-32.9-5.3c-15.2-8.2-30.8-25.6-26.9-37.8c2-6.3,7.1-5.8,8.9-12.2c3.1-10.7-10.6-18.2-14.7-31.1
	c-6.1-19,8.6-48.2,29-55.4C12.5-66,48.5-46.7,58.1-6.2z"/>
<path class="st3" d="M246.9-69.2c45.2,11.2,58.1,21.1,59.3,29c1.6,10.2-17.4,13.8-17.6,30.6C288.4,6.3,305,13.8,303.6,28
	C302.3,42,285,47.9,278.5,50c-16.6,5.6-41.1,4.4-49.1-8.4c-4.1-6.6-0.6-10.2-4.9-16.8c-7.2-11-22.2-6-35.8-12.9
	c-20-10.2-35.8-45-29.1-66.8C167.3-80,206.3-93.4,246.9-69.2z"/>
<g>
	<circle class="st4" cx="71.5" cy="41.7" r="2.3"/>
	<circle class="st4" cx="76.1" cy="33.8" r="2.3"/>
	<circle class="st4" cx="80.7" cy="25.8" r="2.3"/>
	<circle class="st4" cx="79.4" cy="46.3" r="2.3"/>
	<circle class="st4" cx="84" cy="38.4" r="2.3"/>
	<circle class="st4" cx="88.6" cy="30.4" r="2.3"/>
	<circle class="st4" cx="87.4" cy="50.9" r="2.3"/>
	<circle class="st4" cx="92" cy="43" r="2.3"/>
	<circle class="st4" cx="96.6" cy="35" r="2.3"/>
	<circle class="st4" cx="95.4" cy="55.5" r="2.3"/>
	<circle class="st4" cx="99.9" cy="47.6" r="2.3"/>
	<circle class="st4" cx="104.5" cy="39.6" r="2.3"/>
</g>
</svg>
