<?xml version="1.0" encoding="utf-8"?>
<!-- Generator: Adobe Illustrator 25.2.1, SVG Export Plug-In . SVG Version: 6.00 Build 0)  -->
<svg version="1.1"
	 id="svg8" sodipodi:docname="songs-banner.svg" xmlns:cc="http://creativecommons.org/ns#" xmlns:dc="http://purl.org/dc/elements/1.1/" xmlns:inkscape="http://www.inkscape.org/namespaces/inkscape" xmlns:rdf="http://www.w3.org/1999/02/22-rdf-syntax-ns#" xmlns:sodipodi="http://sodipodi.sourceforge.net/DTD/sodipodi-0.dtd" xmlns:svg="http://www.w3.org/2000/svg"
	 xmlns="http://www.w3.org/2000/svg" xmlns:xlink="http://www.w3.org/1999/xlink" x="0px" y="0px" viewBox="0 0 255.1 100.4"
	 style="enable-background:new 0 0 255.1 100.4;" xml:space="preserve">
<style type="text/css">
	.st0{fill:#18171C;}
	.st1{fill:none;stroke:#3E5957;stroke-width:3;stroke-miterlimit:5.6693;}
	.st2{fill:#342C3D;}
	.st3{fill:#2A333A;}
	.st4{fill:#514150;}
</style>
<rect class="st0" width="255.1" height="100.4"/>
<sodipodi:namedview  bordercolor="#666666" borderopacity="1.0" id="base" inkscape:current-layer="layer1" inkscape:cx="268.19443" inkscape:cy="169.11336" inkscape:document-rotation="0" inkscape:document-units="mm" inkscape:guide-bbox="true" inkscape:pageopacity="0.0" inkscape:pageshadow="2" inkscape:window-height="1043" inkscape:window-maximized="1" inkscape:window-width="1920" inkscape:window-x="1920" inkscape:window-y="0" inkscape:zoom="1.8101934" pagecolor="#ffffff" scale-x="5" showgrid="false" showguides="true" units="mm">
	<sodipodi:guide  id="guide2566" orientation="1,0" position="-133.3252,188.70036"></sodipodi:guide>
</sodipodi:namedview>
<g id="layer1" inkscape:groupmode="layer" inkscape:label="Layer 1">
	<path id="path10" class="st1" d="M211.3,66.8l-1.8-9.1l-7.7,13.2c-1.2,2-3.7,2.7-5.7,1.5s-2.7-3.7-1.5-5.7s3.7-2.7,5.7-1.5"/>
</g>
<g>
	<path class="st1" d="M86-9.2c3.5,2,0.5,7.2,3.9,9.2c3.5,2,6.5-3.2,9.9-1.2c3.5,2,0.5,7.2,3.9,9.2c3.5,2,6.5-3.2,9.9-1.2
		c3.5,2,0.5,7.2,3.9,9.2c3.5,2,6.5-3.2,9.9-1.2c3.5,2,0.5,7.2,3.9,9.2c3.5,2,6.5-3.2,9.9-1.2c3.5,2,0.5,7.2,3.9,9.2
		c3.5,2,6.5-3.2,9.9-1.2c3.5,2,0.5,7.2,3.9,9.2c3.5,2,6.5-3.2,9.9-1.2c3.5,2,0.5,7.2,3.9,9.2c3.5,2,6.5-3.2,9.9-1.2
		c3.5,2,0.5,7.2,3.9,9.2"/>
</g>
<g>
	<path class="st1" d="M52.6-13.5c3.5,2,0.5,7.2,3.9,9.2c3.5,2,6.5-3.2,9.9-1.2c3.5,2,0.5,7.2,3.9,9.2c3.5,2,6.5-3.2,9.9-1.2
		c3.5,2,0.5,7.2,3.9,9.2c3.5,2,6.5-3.2,9.9-1.2c3.5,2,0.5,7.2,3.9,9.2c3.5,2,6.5-3.2,9.9-1.2c3.5,2,0.5,7.2,3.9,9.2
		c3.5,2,6.5-3.2,9.9-1.2c3.5,2,0.5,7.2,3.9,9.2c3.5,2,6.5-3.2,9.9-1.2c3.5,2,0.5,7.2,3.9,9.2c3.5,2,6.5-3.2,9.9-1.2
		c3.5,2,0.5,7.2,3.9,9.2"/>
</g>
<g>
	<path class="st1" d="M77.9-28.8c3.5,2,0.5,7.2,3.9,9.2c3.5,2,6.5-3.2,9.9-1.2c3.5,2,0.5,7.2,3.9,9.2c3.5,2,6.5-3.2,9.9-1.2
		c3.5,2,0.5,7.2,3.9,9.2c3.5,2,6.5-3.2,9.9-1.2c3.5,2,0.5,7.2,3.9,9.2c3.5,2,6.5-3.2,9.9-1.2c3.5,2,0.5,7.2,3.9,9.2
		c3.5,2,6.5-3.2,9.9-1.2c3.5,2,0.5,7.2,3.9,9.2c3.5,2,6.5-3.2,9.9-1.2c3.5,2,0.5,7.2,3.9,9.2c3.5,2,6.5-3.2,9.9-1.2
		c3.5,2,0.5,7.2,3.9,9.2"/>
</g>
<path class="st2" d="M58.1-4.2c22.2,36.7,23.7,50.7,18.8,55.7C70.5,58,55.1,47,42.7,55.8c-11.6,8.3-6,23.6-17.2,30.2
	c-11.1,6.5-27-2.1-32.9-5.3c-15.2-8.2-30.8-25.6-26.9-37.8c2-6.3,7.1-5.8,8.9-12.2C-22.3,20-36,12.5-40.1-0.4
	c-6.1-19,8.6-48.2,29-55.4C12.5-64,48.5-44.7,58.1-4.2z"/>
<path class="st3" d="M241.9-63.2c45.2,11.2,58.1,21.1,59.3,29c1.6,10.2-17.4,13.8-17.6,30.6c-0.2,15.9,16.4,23.4,15,37.6
	c-1.3,14-18.6,19.9-25.1,22c-16.6,5.6-41.1,4.4-49.1-8.4c-4.1-6.6-0.6-10.2-4.9-16.8c-7.2-11-22.2-6-35.8-12.9
	c-20-10.2-35.8-45-29.1-66.8C162.3-74,201.3-87.4,241.9-63.2z"/>
<g>
	<circle class="st4" cx="66.5" cy="50.7" r="2.3"/>
	<circle class="st4" cx="71.1" cy="42.8" r="2.3"/>
	<circle class="st4" cx="75.7" cy="34.8" r="2.3"/>
	<circle class="st4" cx="74.4" cy="55.3" r="2.3"/>
	<circle class="st4" cx="79" cy="47.4" r="2.3"/>
	<circle class="st4" cx="83.6" cy="39.4" r="2.3"/>
	<circle class="st4" cx="82.4" cy="59.9" r="2.3"/>
	<circle class="st4" cx="87" cy="52" r="2.3"/>
	<circle class="st4" cx="91.6" cy="44" r="2.3"/>
	<circle class="st4" cx="90.4" cy="64.5" r="2.3"/>
	<circle class="st4" cx="94.9" cy="56.6" r="2.3"/>
	<circle class="st4" cx="99.5" cy="48.6" r="2.3"/>
</g>
</svg>
