<?xml version="1.0" encoding="utf-8"?>
<!-- Generator: Adobe Illustrator 25.2.1, SVG Export Plug-In . SVG Version: 6.00 Build 0)  -->
<svg version="1.1" id="Layer_1" xmlns="http://www.w3.org/2000/svg" xmlns:xlink="http://www.w3.org/1999/xlink" x="0px" y="0px"
	 viewBox="0 0 961 9" style="enable-background:new 0 0 961 9;" xml:space="preserve">
<style type="text/css">
	.st0{fill:#4B4B4B;}
</style>
<g>
	<g>
		<g>
			<g>
				<g>
					<path class="st0" d="M957.59,5.9c0.5-0.09,0.22-0.28-1.17-0.24l-0.99,0.33L957.59,5.9z"/>
					<path class="st0" d="M948.25,5.29c-1.63,0.16-3.52,0.44-2.46,0.75c1.62-0.32,2.01-0.19,3.75-0.56
						c1.39-0.04,2.42,0.11,2.19,0.23c0.49-0.08,2.16,0.07,2.91-0.14c-1.81-0.26-4.1-0.27-6.49-0.05
						C947.63,5.44,948.13,5.35,948.25,5.29z"/>
					<path class="st0" d="M812.51,4.77l0.87,0.04C813.14,4.79,812.84,4.78,812.51,4.77z"/>
					<path class="st0" d="M728.4,4.59c0.64-0.01,0.91-0.04,0.94-0.07C728.75,4.54,728.26,4.56,728.4,4.59z"/>
					<path class="st0" d="M714.04,4.23c0.31,0.01,0.57,0.02,0.85,0.02C714.57,4.22,714.24,4.2,714.04,4.23z"/>
					<path class="st0" d="M812.51,4.77l-2.25-0.1C810.1,4.78,811.41,4.75,812.51,4.77z"/>
					<path class="st0" d="M929.53,6.09c0.47-0.02,0.86-0.05,1.22-0.09c-0.39,0.01-0.76,0.03-1.15,0.04
						C929.58,6.05,929.56,6.07,929.53,6.09z"/>
					<path class="st0" d="M849.58,4.5l0.68,0c0.2-0.04,0.39-0.08,0.57-0.13L849.58,4.5z"/>
					<path class="st0" d="M878.04,4.45c-0.64-0.01-0.87,0.27-1.11,0.39c0.36-0.12,0.84-0.17,1.4-0.19
						C878.33,4.6,878.25,4.53,878.04,4.45z"/>
					<path class="st0" d="M923.15,4.95l0.8-0.04C923.74,4.92,923.39,4.93,923.15,4.95z"/>
					<path class="st0" d="M829.22,4.44c-0.05-0.04-0.15-0.08-0.26-0.1C828.96,4.38,829.06,4.41,829.22,4.44z"/>
					<path class="st0" d="M33.39,6.55c0.02-0.02-0.01-0.03,0-0.05C33.23,6.53,33.17,6.55,33.39,6.55z"/>
					<path class="st0" d="M0.41,5.16l0.46-0.02c0.05-0.05,0.1-0.11,0.1-0.16L0.41,5.16z"/>
					<path class="st0" d="M687.77,3.87c0.05,0,0.07,0,0.12,0.01C688.57,3.84,688.18,3.84,687.77,3.87z"/>
					<path class="st0" d="M446.52,4.07c2.73,0.25-4.45,0.32-0.33,0.6C445.8,4.56,449.92,4.24,446.52,4.07z"/>
					<path class="st0" d="M928.79,6.05c-0.38,0-0.77,0.01-1.17,0C928.16,6.06,928.51,6.06,928.79,6.05z"/>
					<path class="st0" d="M446.18,4.67C446.18,4.68,446.18,4.68,446.18,4.67l0.42,0.03C446.43,4.69,446.33,4.68,446.18,4.67z"/>
					<path class="st0" d="M627.22,4.03c0.12,0.05,0.37,0.09,0.62,0.12C627.81,4.13,627.67,4.09,627.22,4.03z"/>
					<path class="st0" d="M672.32,4.43l-1.12-0.04C671.65,4.42,672.01,4.43,672.32,4.43z"/>
					<path class="st0" d="M603.79,4.43c-0.61-0.02-0.81-0.06-1.64-0.02c0.08,0.01,0.15,0.02,0.25,0.03
						C602.7,4.4,603.1,4.39,603.79,4.43z"/>
					<path class="st0" d="M579.42,4.43c0.13,0.02,0.3,0.04,0.45,0.06c0.24-0.01,0.52-0.01,0.77-0.02L579.42,4.43z"/>
					<path class="st0" d="M107.48,6.42c-0.53-0.08-0.87-0.17-1.13-0.25C106.73,6.37,103.15,6.44,107.48,6.42z"/>
					<path class="st0" d="M929.52,5.93c-0.14,0.07-0.35,0.11-0.72,0.12c0.28,0,0.55-0.01,0.81-0.02
						C929.67,5.99,929.69,5.95,929.52,5.93z"/>
					<path class="st0" d="M602.8,6.65l-3.87-0.04C600.01,6.63,601.42,6.65,602.8,6.65z"/>
					<path class="st0" d="M282.37,6.38l-0.89,0.03C281.82,6.42,282.14,6.41,282.37,6.38z"/>
					<path class="st0" d="M587.44,6.65c-0.69-0.1-1.42-0.16-2.18-0.19c-0.16,0.02-0.34,0.04-0.45,0.07L587.44,6.65z"/>
					<path class="st0" d="M106.35,6.16C106.35,6.17,106.35,6.17,106.35,6.16C106.35,6.17,106.35,6.17,106.35,6.16z"/>
					<path class="st0" d="M80.83,6.83c3.69,0.01,1.73-0.36,2.52-0.57c4.4-0.1,2.04,0.27,3.54,0.46c2.75-0.1,4.86-0.44,6.91-0.42
						c0.15,0.06,0.55,0.08,0.08,0.16c2.91-0.29,8.63-0.01,12.02-0.38c0.25,0.03,0.38,0.06,0.44,0.09c-0.55-0.19-0.63-0.37-0.52-0.51
						c1.65-0.01,3.07-0.23,3.69,0.01c-1.01-0.01-1.1,0.09-1.57,0.17l1.73-0.1c1.56,0.35-2.37,0.12-2.37,0.38
						c3.38-0.11,7.32-0.4,9.91-0.3c0.54,0.34-6.06,0.11-2.6,0.42l-4.01-0.13c3.06,0.54-2.44-0.04,0.38,0.54
						c5.27,0.1,5.9-0.17,11.16-0.07c1.18-0.19-0.39-0.28,0.79-0.47c7.48-0.34,5.89,0.85,11.38,0.4c1.42-0.23,1.98-0.66,5.89-0.43
						l-1.33,0.38c5.11,0.04,2.92-0.55,8.26-0.29c-0.95,0.15-4.01,0.13-3.24,0.17c3.46,0.3,2.45-0.22,5.11-0.22l0.55,0.34
						c5.44-0.05,11.43-0.3,17.45-0.36c-0.33,0.1-1.36,0.21,0.04,0.31c7.59-0.17,16.21,0.04,23.54,0.24l2.8-0.29
						c0.65,0,1.21,0.13,0.5,0.19c2.85,0.11,0.15-0.19,1.52-0.3c1.62-0.02,2.15,0.17,1.12,0.26c5.04-0.25,14.35-0.54,19.66-0.22
						l-1.03,0.09c4.13,0.12,4.66-0.6,8.5-0.33l-0.74,0.05c8.97,0.13,18.88-0.14,25.73,0.3c1.3-0.42,8.88,0.19,9.46-0.4
						c5.12,0.29,3.66,0.4,10.87,0.59c1.93,0.03,2.87-0.37,5.25-0.43l0.06,0.31l3.23-0.32l1.72,0.37l2.23-0.08
						c-0.89-0.02-1.89-0.14-1.76-0.23c3.49-0.14,8.51,0.21,8.59,0.37l8.26-0.26c-0.18,0.12-1.57,0.17-2.66,0.25
						c4.41-0.31,0.8,0.32,4.84,0.04c-0.54-0.07,0.29-0.18,0.38-0.25c2.01,0.19,6.6,0.19,9.99,0.11l-0.65,0.21
						c6.12,0.05,12.91-0.1,19.78-0.1c-2.47-0.1-1.9-0.47,0.12-0.5l0.81,0.33c1.3-0.2-2.11-0.12,0.57-0.37
						c2.57,0.04,1.73,0.37,0.25,0.48l3.12-0.11c0.18,0.1-0.55,0.15-0.74,0.27c1.28-0.2,5.39,0.33,7.24-0.02l0.18,0.1
						c6.87,0,9.99-0.11,15.58-0.13c0.11-0.28,2.3-0.22,3.97-0.45c4.11,0.09,8.68,0.31,13.63,0.29c3.48-0.14,1.02-0.24,2.58-0.41
						c0.26,0.26,5.21,0.23,2.64,0.42c5.95-0.04,7.6-0.05,15.12-0.26c-0.82-0.1-1.73-0.15-1.26-0.24c1.36-0.04,3.11,0.11,2.91,0.23
						l-0.36,0.03c8.44-0.38,19.49,0.75,26.21,0.21l-0.38,0.03l6.97-0.28c3.21,0.04-1.92,0.19,0.45,0.35
						c7.52-0.43,11.88,0.06,18.08-0.22c4.79,0.76,17.01-0.05,23.48,0.43l-0.37-0.18c1.67-0.17,2.02,0.1,3.26,0.14
						c-0.17-0.14-1.81-0.16-0.78-0.26c14.17-0.21,29.24,0.26,43.77,0.42c5.31,0.05,3.02-0.92,9.71-0.5l-1.9,0.33
						c10.72-0.4,21.92,0.01,32.42-0.32c-0.63,0.08-0.64,0.18-1.67,0.17c2.22,0.24,8.2,0.01,8.24-0.18c1.63,0.02,0.38,0.18,1.39,0.28
						c2.22,0.14,5.58-0.31,6.76-0.07c0.2,0.04-0.62,0.08-1.03,0.1c1.45-0.12,6.75,0.03,5.36-0.25c3.94,0.13,7.54-0.12,10.68,0.04
						c2.05-0.31,6.74,0.15,7.39-0.29c-0.28,0.45,6.91,0.36,9.4,0.15c-0.83,0.14,2.17,0.14,1.19,0.33c2.84-0.01,5.45-0.09,4.95-0.32
						c5.24,0.54,10.53-0.44,13.47,0.26c8.44-0.24,16.26-0.41,23.85-0.51c-0.27,0.45-8.4,0.04-8.07,0.52
						c7.21-0.19,11.36-0.57,18.51-0.46c1.85,0.06-1.05,0.2-1.68,0.27c7.2-0.19,13.92,0.04,20.32-0.2c-0.02,0.04-0.71,0.09-1.36,0.12
						c1.26-0.01,2.94,0.07,2.79-0.14l-1.23,0.06c-2.02-0.3,5.01-0.62,5.24-0.78c-2.14,0.59,6.33,0.15,2.92,0.89
						c0.83-0.04,1.87-0.14,1.68-0.27c1.23,0.04,1.62,0.12,0.37,0.28c4.52-0.11,2.92-0.33,7.01-0.33c-0.01,0.1-0.84,0.14-1.27,0.25
						c2.07-0.19,4.16-0.39,7.62-0.3c-0.21,0.06,0.19,0.14-0.84,0.14c5.95-0.03,10.13-0.52,16.66-0.33
						c-1.92,0.43,2.22,0.14,2.56,0.52l3.51-0.11L718.87,6c3.07,0.01,5.79-0.27,8.43-0.14l-2.28,0.15l5.76-0.07l-3.26-0.14
						c3.11-0.19-0.33-0.47,3.76-0.37c-0.83,0.04,3.07,0,4.67,0.22c0,0-0.01,0-0.01,0c1.52-0.12,3.08-0.24,5.36-0.15
						c0.59,0.12-0.47,0.41-0.09,0.49c1.5-0.31,7.2-0.09,9.09-0.42c-0.63,0.08-0.67,0.27-0.46,0.31l1.26-0.25
						c1.42,0.08,1.63,0.12,1.4,0.28c4.28,0.05-1.36-0.47,3.72-0.27c-0.4,0.02-0.21,0.06-1.04,0.1c5.1,0.11,9.86-0.16,14.55-0.04
						c1.38,0.38-4.1,0.09-2.51,0.41c6.76-0.07,14-0.45,20.54-0.36l-1.22-0.04c0.91-0.53,4.87,0.26,8.18,0.01
						c-0.81,0.04-1.06,0.29-0.84,0.24c4.48,0.09,9.16-0.13,15.95-0.3l-0.84,0.14c2.64,0.12,6.95,0.07,9.81,0.13
						c0.85-0.14,2.48-0.11,1.49-0.31c8.79,0.78,16.78-0.42,24.58,0.23c-0.93,0-2.22,0.12-1.48,0.12l6.65-0.13
						c-0.53-0.23-0.87-0.14-2.27-0.32c0.84-0.14,2.72-0.24,4.36-0.24c-2.99,0.15,0.03,0.37,1.32,0.5c-0.22-0.07,0.23-0.15,0.12-0.22
						c3.47,0.41,0.58-0.46,5.32-0.19l-0.25,0.12c1.77-0.06,3.41-0.22,5.32-0.19c0.79,0.27-1.89,0.12-2.01,0.34
						c2.69-0.02,5.3-0.51,7.73-0.24c-1.14,0.07-2.78,0.08-3.92,0.15c2.65,0.31,2.96,0.23,4.92,0.28l-0.19-0.01l4.55,0.14l-1.16-0.09
						c3.36-0.7,6.85-0.13,11.38-0.58c-4.4,0.43-0.73,0.25-1.07,0.55c1.16,0.08,2.92,0.18,2.41,0.26c2.14-0.24,3.57,0.19,6.6-0.16
						c0.14,0.1,2.29,0.01,1.81,0.25c2.78-0.08-0.66-0.17-0.42-0.29c4.29-0.33,10.09,0.4,16.26-0.05c5.32-0.19,6.31-0.52,11.25-0.68
						c1.67,0.16-1.36,0.36-1.36,0.36c2.69,0.14,4.71,0.12,7.25,0.01c-0.51,0.09,0.02,0.16,0.79,0.27c2.03-0.03,1.36-0.36,4.04-0.21
						c-0.46,0.11-1.05,0.28-2.03,0.39c2.4-0.09,4.76-0.27,7.24-0.36c0.66,0.17-1.5,0.26-2.37,0.37c2.79-0.08,7.22-0.15,8.09-0.42
						l-1.79-0.1c1.02-0.01,0.52,0.23-0.23,0.28c-2.39,0.21-3.45-0.09-3.58-0.19l1.77-0.06c-1.81-0.57-7.1,0.09-10.65,0.06l1.48-0.42
						l-3.65,0.35c-0.78-0.11-1.31-0.34,0.45-0.4c-2.55-0.21-2.26,0.15-4.45-0.08c-0.24-0.04-0.13-0.06,0.09-0.07l-2.49,0.12
						c0.49-0.09-0.41-0.29,1.12-0.23c-4.47-0.24-7.21,0.31-8.89,0l0.37-0.03c-6.2,0.14-0.6,0.31-5.25,0.66l-3.13-0.75l-0.61,0.31
						c-0.64-0.01-1.91-0.03-1.67-0.16c-2.38,0.21,0.41,0.13-0.98,0.33c-3.08-0.28-8.49,0.13-9.19-0.36
						c-1.11,0.23,2.95,0.18-0.34,0.34c-0.94-0.52-3.8,0.09-6.62-0.15c0.86-0.27,3.53-0.13,0.71-0.37c-1.7,0.46-5.48-0.1-7.85-0.01
						c-0.11,0.36-5.16,0.15-9.15,0.27c0.25-0.12-7.5-0.2-11.2-0.33l0.11-0.06c-0.72,0.37-4.54,0.3-7.32,0.37
						c0.11-0.22,0.61-0.31,2.12-0.4l-2.62,0c-0.62,0.12-1.43,0.18-3.13,0.22l0.66-0.27c-3.48,0.02-7.01,0.32-11.49,0.14
						c-0.25,0.26,3.56,0.71-1.17,0.88c-0.18-0.14-0.35-0.38,0.89-0.43c-0.41,0.02-1.45,0.11-2.27,0.06l1.89-0.23
						c-2.04-0.1-1.07,0.19-2.7,0.17c0.03-0.2-1.21-0.14-0.97-0.3c0.42-0.02,1.42,0.08,2.05,0c-1.84-0.04-4.06-0.15-4.8-0.3
						c0.16,0.11,0,0.27-1.35,0.29c-3.48,0.01-1.19-0.24-3.22-0.34c-0.84,0.14-3.07,0-3.12,0.29c-1.02,0-1.21-0.14-1.6-0.22
						c-1.8,0.13-8.42,0.04-6.39,0.35L814,4.84c-0.09,0.01-0.19,0.01-0.29,0.01c0.01,0,0,0,0.01,0h-0.01
						c-5.91,0.29-12.27-0.17-18.13-0.04l0.01-0.1c-3.5,0.11-7.79,0.07-10.29,0.28c-1.03,0-2.44-0.18-2-0.3
						c-2.67,0.07-2.97,0.19-6.84,0.02c2.69-0.17-0.93-0.15,2.76-0.13c-3.48-0.09-4.26-0.24-7.99,0.03c1.27-0.25-2.62-0.32-4.27-0.24
						l2.44,0.18c-1.86,0.04-3.48,0.01-5.13-0.01l0.89-0.33c-7.11-0.4-12.83,0.69-18.24,0.01c-1.88,0.23,3.86,0.16,2.18,0.44
						c-3.27-0.04-6.68-0.52-7.7-0.52c-4.48-0.18-4.18,0.49-8.87,0.36c0.6,0.12,1.17,0.44-2.34,0.55c-3.27-0.04-4.02-0.5-1.96-0.59
						c0.79-0.01,1.16,0.03,1.13,0.07c1.06-0.04,2.45-0.09,1.15-0.22l-0.42,0.12c-1.62-0.12-6.13-0.11-5.07-0.3
						c-2.47,0.11-1.06,0.19,0.77,0.26c-4.2-0.17-6.56-0.01-10.88-0.12c0.69,0.07,1.32,0.2,0.64,0.2c-6.34-0.15-2.79,0.23-7.09,0.28
						c-2.44-0.18,0.87-0.43-3.45-0.28c-2.64-0.12-0.56-0.31,0.49-0.41c-3.94,0.23-7.36-0.15-9.61-0.19l2.07-0.1
						c-1.24,0.06-2.26,0.06-3.29,0.05l1.18,0.24C694.62,4,693.59,4,693.61,3.9c-1.26,0.16,0.96,0.39-1.53,0.61
						c-1.62-0.12-4.95,0.13-5.51-0.19c5.11,0.11-0.56-0.32,3.76-0.37c-0.83,0.04-1.85,0.04-3.07-0.01
						c-0.18-0.04,0.17-0.07,0.51-0.08c-4.89-0.28-2.25,0.36-7.31,0.35c0.64-0.18-1.17-0.34-2-0.3c2.04,0,0.98,0.3-0.9,0.43
						c-3.25-0.14-3.53,0.1-5.23,0.09l1.94,0.06c-0.66,0.18-2.28,0.15-4.55,0.21c-0.19-0.14,2.06-0.1,1.25-0.16
						c-2.51,0.31-5.68-0.32-9.19-0.11c-1.62-0.12-0.16-0.33-1.58-0.41c-3.93,0.23-4.26-0.24-8.39-0.05c1.19,0.24,1.4,0.18-1.51,0.41
						l6.79-0.17l-4.36,0.35c2.05,0,4.32-0.15,5.55-0.11c-2.08,0.19-1.86,0.14-0.88,0.33c-2.8-0.36-5.56,0.21-8.8-0.03l0.1-0.59
						c-4.87-0.26-8.66,0.3-14.98,0.15l2.03,0.1c-0.85,0.23-3.91,0.03-5.96,0.13c0.19-0.2-1.09-0.27-1.96-0.39
						c0.11,0.15-4.63-0.01-5.21,0.38l-2.82-0.26c-5.11-0.11-5.83,0.56-10.74,0.5c1.48-0.21-0.75-0.35,2.54-0.51
						c-1.64,0-3.11-0.04-3.14,0.1c-0.96-0.12-4.55,0.27-6.05,0.08c-0.69,0.09-0.92,0.29-2.76,0.28c-0.2-0.04,0.01-0.1,0.01-0.1
						c-0.01,0.1-2.88,0.13-1.27,0.35c-5.05-0.62-14.12,0.04-18.51-0.48c-3.58,0.07-7.89,0.13-11.14,0.14
						c0.21-0.06,0.01-0.1,0.62-0.08c-4.48-0.18-2.75,0.57-7.85,0.36c-2.6-0.32,2.71-0.17,1.08-0.29c-0.71-0.65-6.15,0.09-9.59-0.29
						l0.83-0.04c-2.62-0.22-6.4,0.25-10.68,0.2c0,0,0.21-0.06,0.02-0.1c-2.93,0.33-8.48,0.44-12.6,0.53
						c1.28-0.25,1.87-0.13,1.09-0.39c-1.85,0.04,0.54,0.41-3.15,0.49c-1.2-0.14-3.86-0.26-4.21-0.54l3.48-0.01
						c-1.78-0.36-4.5,0.01-6.34-0.05l0.23-0.16c-5.33,0.05-5.41,0.44-11.14,0.42l0.59,0.12c-3.13,0.39-2.63-0.22-5.75,0.07
						l-0.95-0.39c-2.07,0.1-7.24,0.38-10.95,0.46c2.1-0.29,6.44-0.44,9.12-0.62c-2.05,0-6.96,0.03-8.03,0.22
						c0.83-0.04,1.87-0.13,2.68-0.07c-2.51,0.31-5.82,0.46-9.9,0.46c0.72-0.77-10.64-0.19-13.6-0.79
						c-7.22,0.28-14.33-0.12-22.74-0.08c2.98,0.6-2.46,0.02-1.94,0.63c-1.96,0.04-2.71,0.03-2.88-0.01l-5.94-0.37
						c-1.41-0.18,1.86-0.13,1.68-0.27c-4.29-0.05-1.8-0.26-4.64-0.42c0.58,0.22-1.49,0.31-3.94,0.23l3.44,0.28
						c-6,0.33-5.18-0.51-11.23-0.19l1.91-0.19c-3.1,0.11-11.44,0-14.48,0.49c-0.55-0.07-1.27-0.24,0.09-0.28
						c-7.41-0.07-16.5,0.52-22.26,0.22l0.56-0.15c-1.38,0.04-2.41,0.28-4.14,0.13c0.09-0.06,0.56-0.15-0.08-0.16
						c-0.73,0.05-3.67,0.26-5.51,0.17L383.24,4c-7.23-0.2-11.1,0.41-17.16,0.51c0.02-0.44-5.67-0.58-8.51-0.65l0.1-0.06
						c-8.42-0.05-14.3,0.36-22.1,0.54c-4.84-0.48-16.39-0.2-24.17-0.47c1.19,0.08-0.19,0.34-1.58,0.39
						c-1.83-0.09-5.05,0.31-4.76-0.1l0.65,0.01c-1.38-0.4-5.13-0.29-8.06-0.3l-0.48,0.53c-7.66-0.77-20.07,0.28-24.25-0.41
						c-1.85,0.13-4.14,0.13-5.97,0.26l0.1-0.28c-5.12-0.07-7.68-0.11-14.01-0.04l1.29-0.2c-3.57-0.02-4.51,0.82-7.8,0.83l-0.99-0.42
						c-6.23,0.01-12.54-0.36-18.69,0.02c0.1-0.06,0.28-0.18,1.29-0.2c-2.93-0.01-11.34-0.29-10.28,0.29
						c-0.07-0.38-6.43-0.04-9.79,0.13l0.52-0.28c-2.84,0.36-2.93,0.45-6.9,0.55c-0.94-0.04-0.82-0.22,0.42-0.15
						c-3.13-0.15-2.44,0.26-6.24,0.12l1.41-0.18c-3.22-0.02-2.97,0.07-4.74,0.28c-2.03,0.11-6.11-0.07-6.59-0.32
						c-0.43,0.15-2.2,0.36-4.1,0.29c-0.26-0.1,0.44-0.15,0.78-0.18c-5.39-0.19-8.01,0.32-11.72,0.05c-0.08-0.09-0.32-0.14-0.63-0.17
						c4.28,0.01,7.73,0.02,7.4,0.04c0-0.26-3.46-0.3-0.71-0.66c-2.78,0.19-7.52,0.61-10.89,0.49c-0.16-0.02-0.32-0.05-0.45-0.09
						l0.35-0.03c-0.78-0.03-1.47,0-2.13,0.04c-1.08-0.04-1.76-0.07-2.79-0.08c-0.4-0.21-3.96-0.11-5.69-0.12
						c0.14,0.28-2.11,0.24,0,0.47c-0.27-0.02,0.33-0.03,1.47-0.05c0.26-0.01,0.56-0.01,0.74-0.03c-0.03,0.01-0.07,0.02-0.12,0.02
						c1.13-0.01,2.61-0.01,4.29-0.02c-1.36,0.14-2.79,0.26-4.69,0.11c-0.88,0.18-1.86,0.37-2.41,0.45c-2.36-0.39-6.91-0.6-7.54-0.85
						c-5.26,0.16-12.4,0.1-15.71,0.63c-1.5,0.07-1.72-0.15-2.28-0.23c0.86-0.05,1.89-0.04,2.36-0.12c-2.99,0.14-8.87,0.05-9.58,0.42
						c-3.77-0.17,2.12-0.34-3.06-0.28l0.7-0.11c-10.2-0.59-16.58,0.94-27.88,0.18c0.78,0.05,1.17,0.07,1.33,0.13
						C80.15,4.38,66.48,5.03,53.76,4.5c-3.61-0.11-4.01,0.13-6.21,0.31l-0.78-0.3L43,4.85c-5.35,0.26-9.26-0.74-16.03-0.26l0.87,0.2
						c-2.43-0.04-7.7,0.12-7.3-0.11c-0.25,0.04-0.8,0.21-1.75,0.11l-0.07-0.16L12.74,4.9c-4.63-0.11,0.72-0.63-6.03-0.66
						C4.2,4.3-0.44,4.7,0.5,4.81c1.01,0.01,2.59,0.1,2.67,0.26l-2.3,0.08C0.45,5.61-1.31,6.09,4.33,6.42l3.93-0.28l1.27,0.23
						L6.21,6.37c1.88,0.21,3.07,0.02,4.4-0.1c0.32,0.12,0.87,0.2,1.65,0.25l3.86-0.44c0.47,0.18-1.73,0.36,0.86,0.46
						c1.81-0.21-1.73-0.41,1.26-0.54c1.88,0.21,1.33,0.38,3.54,0.2c0.31,0.12-0.16,0.2-1.03,0.25c1.96-0.14,5.2-0.06,6.21-0.31
						c1.96,0.26,6.63-0.07,6.44,0.37c0.62-0.11,3.46-0.35,5.26-0.36c-3.3,0.53,6.75,0.03,5.88,0.6c2.44-0.47,8.81-0.21,13.13-0.47
						c-0.24,0.04-0.72,0.11-1.1,0.09c2.43,0.04,3.14,0.18,4.7,0.27c0.31-0.39,4.1-0.48,6.14-0.72c2.98,0.38-1.81,0.46-0.87,0.82
						c-0.15-0.32,5.18-0.32,4.17-0.58c2.28,0.23,1.96,0.11,3.14,0.44c0.4-0.49,2.12-0.08,4.01-0.38c3.3,0.24,0.85,0.46,4.47,0.31
						C84.06,6.66,80.83,6.83,80.83,6.83z M167.03,5.98C167.03,5.99,167.03,5.99,167.03,5.98C166.29,6,165.66,6,165.25,6.01
						C165.62,6,166.14,6,167.03,5.98z M174.28,5.98c-0.88-0.01-1.98-0.01-3.14-0.01c-0.25-0.1,0.02-0.2,0.75-0.19
						C171.49,5.84,173.2,5.9,174.28,5.98z M158.95,4.03c1.15-0.04,1.53,0.02,1.69,0.07c-0.54,0-1.17,0.01-2.01,0.03
						c-0.03,0.01-0.1,0.02-0.14,0.03C158.61,4.12,158.74,4.07,158.95,4.03z"/>
					<path class="st0" d="M156.89,4.4c-0.17,0.01-0.26,0.02-0.47,0.02c0.23,0.02,0.46,0.05,0.68,0.06c0.14-0.03,0.28-0.06,0.41-0.09
						C157.3,4.4,157.09,4.4,156.89,4.4z"/>
					<path class="st0" d="M813.53,4.82l-0.15-0.01c0.13,0.01,0.24,0.02,0.32,0.04C813.6,4.84,813.6,4.83,813.53,4.82z"/>
					<polygon class="st0" points="274.3,6.52 274.29,6.45 273.66,6.51 					"/>
					<path class="st0" d="M853.43,5.78c0.08,0.02,0.23,0.05,0.52,0.07C853.93,5.84,853.71,5.81,853.43,5.78z"/>
					<path class="st0" d="M870.66,5.85l2.44,0.1C872.05,5.89,871.28,5.86,870.66,5.85z"/>
					<path class="st0" d="M883.91,5.98c0.17-0.05,0.22-0.09,0.26-0.12c-0.01,0-0.02,0-0.03,0L883.91,5.98z"/>
					<path class="st0" d="M673.24,6.31c-0.18,0-0.35,0.01-0.51,0.01C671.53,6.38,672.34,6.36,673.24,6.31z"/>
					<path class="st0" d="M735.93,5.66c-0.67,0.05-1.32,0.1-2.02,0.13C735.03,5.81,735.9,5.82,735.93,5.66z"/>
					<path class="st0" d="M603.23,6.65C603.24,6.65,603.23,6.65,603.23,6.65c-0.14,0-0.27,0-0.42,0L603.23,6.65z"/>
					<path class="st0" d="M731,5.79c1.12,0.06,2.05,0.04,2.92,0C733,5.77,731.92,5.74,731,5.79z"/>
					<path class="st0" d="M941.34,6.11l0.64,0.01c-0.01-0.02,0.03-0.03,0.08-0.05L941.34,6.11z"/>
					<path class="st0" d="M942.06,6.08l0.71-0.03C942.44,6.05,942.16,6.05,942.06,6.08z"/>
					<path class="st0" d="M944.26,5.97l-1.49,0.07C943.28,6.05,943.92,6.05,944.26,5.97z"/>
					<path class="st0" d="M923.8,5.98l-0.2,0.1C923.71,6.06,923.78,6.03,923.8,5.98z"/>
					<path class="st0" d="M918.47,6.01c1.27,0.02,3.19,0.22,4.96,0.15l0.17-0.08C922.77,6.24,919.68,5.84,918.47,6.01z"/>
					<path class="st0" d="M896.22,4.75l4.47,0.08c-0.78-0.11-1.81-0.25,0.22-0.28C895.28,4.23,902.08,4.8,896.22,4.75z"/>
					<path class="st0" d="M882.37,4.59c2.4-0.05-0.03-0.16,0.1-0.22C880.95,4.47,880.58,4.5,882.37,4.59z"/>
					<path class="st0" d="M782.29,4.59l0.24-0.26C780.68,4.37,782.51,4.44,782.29,4.59z"/>
					<polygon class="st0" points="763.15,5.92 764.95,6.07 765.81,5.84 					"/>
					<polygon class="st0" points="751.85,4.09 752.66,4.06 749.57,4.15 					"/>
					<path class="st0" d="M583.75,4.18l0.56,0.31C585.56,4.44,585.82,4.09,583.75,4.18z"/>
					<path class="st0" d="M511.18,4.5c-0.79-0.16-2.83-0.26-4.09-0.1C508.73,4.42,510.35,4.55,511.18,4.5z"/>
					<polygon class="st0" points="293.55,3.99 295.01,3.89 292.26,3.97 					"/>
				</g>
			</g>
		</g>
	</g>
</g>
</svg>
