<?xml version="1.0" encoding="utf-8"?>
<!-- Generator: Adobe Illustrator 25.2.1, SVG Export Plug-In . SVG Version: 6.00 Build 0)  -->
<svg version="1.1" id="Layer_1" xmlns="http://www.w3.org/2000/svg" xmlns:xlink="http://www.w3.org/1999/xlink" x="0px" y="0px"
	 viewBox="0 0 9 961" style="enable-background:new 0 0 9 961;" xml:space="preserve">
<style type="text/css">
	.st0{fill:#4B4B4B;}
</style>
<g>
	<g>
		<g>
			<g>
				<g>
					<path class="st0" d="M7.33,959.82c0.09,0.5,0.28,0.22,0.24-1.17l-0.33-0.99L7.33,959.82z"/>
					<path class="st0" d="M7.95,950.48c-0.16-1.63-0.44-3.52-0.75-2.46c0.32,1.62,0.19,2.01,0.56,3.75
						c0.04,1.39-0.11,2.42-0.23,2.19c0.08,0.49-0.07,2.16,0.13,2.91c0.26-1.81,0.27-4.1,0.05-6.49
						C7.8,949.87,7.89,950.36,7.95,950.48z"/>
					<path class="st0" d="M8.46,814.74l-0.04,0.87C8.45,815.38,8.46,815.08,8.46,814.74z"/>
					<path class="st0" d="M8.65,730.64c0.01,0.64,0.04,0.91,0.07,0.94C8.69,730.98,8.67,730.5,8.65,730.64z"/>
					<path class="st0" d="M9.01,716.28c-0.01,0.31-0.02,0.57-0.02,0.85C9.02,716.8,9.04,716.48,9.01,716.28z"/>
					<path class="st0" d="M8.46,814.74l0.1-2.25C8.46,812.34,8.49,813.65,8.46,814.74z"/>
					<path class="st0" d="M7.15,931.76c0.02,0.47,0.05,0.86,0.09,1.22c-0.01-0.39-0.03-0.76-0.04-1.15
						C7.18,931.82,7.17,931.8,7.15,931.76z"/>
					<path class="st0" d="M8.73,851.82l0,0.68c0.04,0.2,0.08,0.39,0.13,0.57L8.73,851.82z"/>
					<path class="st0" d="M8.78,880.27c0.01-0.64-0.27-0.87-0.39-1.11c0.12,0.36,0.17,0.84,0.19,1.4
						C8.64,880.57,8.7,880.49,8.78,880.27z"/>
					<path class="st0" d="M8.29,925.39l0.04,0.8C8.32,925.98,8.3,925.63,8.29,925.39z"/>
					<path class="st0" d="M8.79,831.45c0.04-0.05,0.08-0.15,0.1-0.26C8.86,831.19,8.82,831.29,8.79,831.45z"/>
					<path class="st0" d="M6.68,35.63c0.02,0.02,0.03-0.01,0.05,0C6.7,35.46,6.68,35.41,6.68,35.63z"/>
					<path class="st0" d="M8.07,2.65L8.09,3.1c0.05,0.05,0.11,0.1,0.16,0.1L8.07,2.65z"/>
					<path class="st0" d="M9.37,690c0,0.05,0,0.07-0.01,0.12C9.4,690.81,9.39,690.42,9.37,690z"/>
					<path class="st0" d="M9.16,448.75c-0.25,2.73-0.32-4.45-0.6-0.33C8.67,448.04,9,452.16,9.16,448.75z"/>
					<path class="st0" d="M7.19,931.03c0-0.38-0.01-0.77,0-1.17C7.17,930.39,7.17,930.75,7.19,931.03z"/>
					<path class="st0" d="M8.56,448.42C8.56,448.42,8.56,448.42,8.56,448.42l-0.03,0.42C8.54,448.67,8.55,448.57,8.56,448.42z"/>
					<path class="st0" d="M9.2,629.45c-0.05,0.12-0.09,0.37-0.12,0.62C9.11,630.05,9.14,629.91,9.2,629.45z"/>
					<path class="st0" d="M8.8,674.56l0.04-1.12C8.81,673.89,8.8,674.24,8.8,674.56z"/>
					<path class="st0" d="M8.8,606.03c0.02-0.61,0.06-0.81,0.02-1.64c-0.01,0.08-0.02,0.15-0.03,0.25
						C8.83,604.94,8.85,605.34,8.8,606.03z"/>
					<path class="st0" d="M8.8,581.65c-0.02,0.13-0.04,0.3-0.06,0.45c0.01,0.24,0.01,0.52,0.02,0.77L8.8,581.65z"/>
					<path class="st0" d="M6.82,109.72c0.08-0.53,0.17-0.87,0.25-1.13C6.87,108.97,6.8,105.38,6.82,109.72z"/>
					<path class="st0" d="M7.31,931.75c-0.07-0.14-0.11-0.35-0.12-0.72c0,0.28,0.01,0.55,0.02,0.81
						C7.24,931.91,7.28,931.92,7.31,931.75z"/>
					<path class="st0" d="M6.59,605.04l0.04-3.87C6.6,602.25,6.59,603.66,6.59,605.04z"/>
					<path class="st0" d="M6.86,284.6l-0.03-0.89C6.82,284.06,6.82,284.37,6.86,284.6z"/>
					<path class="st0" d="M6.59,589.67c0.1-0.69,0.16-1.42,0.19-2.18c-0.02-0.16-0.04-0.34-0.07-0.45L6.59,589.67z"/>
					<path class="st0" d="M7.07,108.58C7.07,108.59,7.07,108.59,7.07,108.58C7.07,108.59,7.07,108.59,7.07,108.58z"/>
					<path class="st0" d="M6.4,83.07c-0.01,3.69,0.36,1.73,0.57,2.52c0.11,4.4-0.27,2.04-0.46,3.54c0.1,2.75,0.44,4.86,0.42,6.91
						c-0.06,0.15-0.08,0.55-0.16,0.08c0.29,2.91,0.01,8.63,0.38,12.02c-0.03,0.25-0.06,0.38-0.09,0.44
						c0.19-0.55,0.37-0.63,0.51-0.52c0.01,1.65,0.23,3.07-0.01,3.69c0.01-1.01-0.09-1.1-0.17-1.57l0.1,1.73
						c-0.35,1.56-0.12-2.37-0.38-2.37c0.11,3.38,0.4,7.32,0.3,9.91c-0.34,0.54-0.11-6.06-0.42-2.6l0.13-4.01
						c-0.54,3.06,0.04-2.44-0.54,0.38c-0.1,5.27,0.17,5.9,0.07,11.16c0.19,1.18,0.28-0.39,0.47,0.79c0.34,7.48-0.85,5.89-0.4,11.38
						c0.23,1.42,0.66,1.98,0.43,5.89l-0.38-1.33c-0.04,5.11,0.55,2.92,0.29,8.26c-0.15-0.95-0.13-4.01-0.17-3.24
						c-0.3,3.46,0.22,2.45,0.22,5.11l-0.34,0.55c0.05,5.44,0.3,11.43,0.36,17.45c-0.1-0.33-0.21-1.36-0.31,0.04
						c0.17,7.59-0.04,16.21-0.24,23.54l0.29,2.8c0,0.65-0.13,1.21-0.19,0.5c-0.11,2.85,0.19,0.15,0.3,1.52
						c0.02,1.62-0.17,2.15-0.26,1.12c0.25,5.04,0.54,14.35,0.22,19.66l-0.09-1.03c-0.12,4.13,0.6,4.66,0.33,8.5l-0.05-0.74
						c-0.13,8.97,0.14,18.88-0.3,25.73c0.42,1.3-0.19,8.88,0.4,9.46c-0.29,5.12-0.4,3.66-0.59,10.87c-0.03,1.93,0.37,2.87,0.43,5.25
						l-0.31,0.06l0.32,3.23l-0.37,1.72l0.08,2.23c0.02-0.89,0.14-1.89,0.23-1.76c0.14,3.49-0.21,8.51-0.37,8.59l0.26,8.26
						c-0.12-0.18-0.17-1.57-0.25-2.66c0.31,4.41-0.32,0.8-0.04,4.84c0.07-0.54,0.18,0.29,0.25,0.38c-0.19,2.01-0.19,6.6-0.11,9.99
						l-0.21-0.65c-0.05,6.12,0.1,12.91,0.1,19.78c0.1-2.47,0.47-1.9,0.5,0.12l-0.33,0.81c0.2,1.3,0.12-2.11,0.37,0.57
						c-0.04,2.57-0.37,1.73-0.48,0.25l0.11,3.12c-0.1,0.18-0.15-0.55-0.27-0.74c0.2,1.28-0.33,5.39,0.02,7.24l-0.1,0.18
						c0,6.87,0.11,9.99,0.13,15.58c0.28,0.11,0.22,2.3,0.45,3.97c-0.09,4.11-0.31,8.68-0.29,13.63c0.14,3.48,0.24,1.02,0.41,2.58
						c-0.26,0.26-0.23,5.21-0.42,2.64c0.04,5.95,0.05,7.6,0.26,15.12c0.1-0.82,0.15-1.73,0.24-1.26c0.04,1.36-0.11,3.11-0.23,2.91
						l-0.03-0.36c0.38,8.44-0.75,19.49-0.21,26.21l-0.03-0.38l0.28,6.97c-0.04,3.21-0.19-1.92-0.35,0.45
						c0.43,7.52-0.06,11.88,0.22,18.08c-0.76,4.79,0.05,17.01-0.43,23.48l0.18-0.37c0.17,1.67-0.1,2.02-0.14,3.26
						c0.14-0.17,0.16-1.81,0.26-0.78c0.21,14.17-0.26,29.24-0.42,43.77c-0.05,5.31,0.92,3.02,0.5,9.71l-0.33-1.9
						c0.4,10.72-0.01,21.92,0.32,32.42c-0.08-0.63-0.18-0.64-0.17-1.67c-0.24,2.22-0.01,8.2,0.18,8.24
						c-0.02,1.63-0.18,0.38-0.28,1.39c-0.14,2.22,0.31,5.58,0.07,6.76c-0.04,0.2-0.08-0.62-0.1-1.03c0.12,1.45-0.03,6.75,0.25,5.36
						c-0.13,3.94,0.12,7.54-0.04,10.68c0.31,2.05-0.15,6.74,0.29,7.39c-0.45-0.28-0.36,6.91-0.15,9.4
						c-0.14-0.83-0.14,2.17-0.33,1.19c0.01,2.84,0.09,5.45,0.32,4.95c-0.54,5.24,0.44,10.53-0.26,13.47
						c0.24,8.44,0.41,16.26,0.51,23.85c-0.45-0.27-0.04-8.4-0.52-8.07c0.19,7.21,0.57,11.36,0.46,18.51
						c-0.06,1.85-0.2-1.05-0.27-1.68c0.19,7.2-0.04,13.92,0.2,20.32c-0.04-0.02-0.09-0.71-0.12-1.36c0.01,1.26-0.07,2.94,0.14,2.79
						L7,677.03c0.3-2.02,0.62,5.01,0.78,5.24c-0.59-2.14-0.15,6.33-0.89,2.92c0.04,0.83,0.14,1.87,0.27,1.68
						c-0.04,1.23-0.12,1.62-0.28,0.37c0.11,4.52,0.33,2.92,0.33,7.01c-0.1-0.01-0.14-0.84-0.25-1.26c0.19,2.07,0.39,4.16,0.3,7.62
						c-0.06-0.21-0.14,0.19-0.14-0.84c0.03,5.95,0.52,10.13,0.33,16.66c-0.43-1.92-0.14,2.22-0.52,2.56l0.11,3.51l0.18-1.41
						c-0.01,3.07,0.27,5.79,0.14,8.43l-0.15-2.28l0.07,5.76l0.14-3.26c0.19,3.11,0.47-0.33,0.37,3.76c-0.04-0.83,0,3.07-0.22,4.67
						c0,0,0-0.01,0-0.01c0.12,1.52,0.24,3.08,0.15,5.36c-0.12,0.59-0.41-0.47-0.49-0.09c0.31,1.5,0.09,7.2,0.42,9.09
						c-0.08-0.63-0.27-0.67-0.31-0.46l0.25,1.26c-0.08,1.42-0.12,1.63-0.28,1.4c-0.05,4.28,0.47-1.36,0.27,3.72
						c-0.02-0.4-0.06-0.21-0.1-1.04c-0.11,5.1,0.16,9.86,0.04,14.55c-0.38,1.38-0.09-4.1-0.41-2.51c0.07,6.76,0.45,14,0.36,20.54
						l0.04-1.22c0.53,0.91-0.26,4.87-0.01,8.18c-0.04-0.81-0.29-1.06-0.24-0.84c-0.09,4.48,0.13,9.16,0.3,15.95l-0.14-0.84
						c-0.12,2.64-0.07,6.95-0.13,9.81c0.14,0.85,0.11,2.48,0.31,1.49c-0.78,8.79,0.42,16.78-0.23,24.58c0-0.93-0.12-2.22-0.12-1.48
						l0.13,6.65c0.23-0.53,0.14-0.87,0.32-2.27c0.14,0.84,0.24,2.72,0.24,4.36c-0.15-2.99-0.37,0.03-0.5,1.32
						c0.07-0.22,0.15,0.23,0.22,0.12c-0.41,3.47,0.46,0.58,0.19,5.32l-0.12-0.25c0.06,1.77,0.22,3.41,0.19,5.32
						c-0.27,0.79-0.12-1.89-0.34-2.01c0.02,2.69,0.51,5.3,0.24,7.73c-0.07-1.14-0.08-2.78-0.15-3.92c-0.31,2.65-0.23,2.96-0.28,4.92
						l0.01-0.19l-0.14,4.55l0.09-1.16c0.7,3.36,0.13,6.85,0.58,11.38c-0.43-4.4-0.25-0.73-0.55-1.07c-0.08,1.16-0.18,2.92-0.26,2.41
						c0.24,2.14-0.19,3.57,0.16,6.6c-0.1,0.14-0.01,2.29-0.25,1.81c0.08,2.78,0.17-0.66,0.29-0.42c0.33,4.29-0.4,10.09,0.05,16.26
						c0.19,5.32,0.52,6.31,0.68,11.25c-0.16,1.67-0.36-1.36-0.36-1.36c-0.14,2.69-0.12,4.71-0.01,7.25
						c-0.09-0.51-0.16,0.02-0.27,0.79c0.03,2.03,0.36,1.36,0.21,4.04c-0.11-0.46-0.28-1.05-0.39-2.03c0.09,2.4,0.27,4.76,0.36,7.24
						c-0.17,0.66-0.26-1.5-0.37-2.37c0.08,2.79,0.15,7.22,0.42,8.09l0.1-1.79c0.01,1.02-0.23,0.52-0.28-0.23
						c-0.21-2.39,0.09-3.45,0.19-3.58l0.06,1.77c0.57-1.81-0.09-7.1-0.06-10.65l0.42,1.48l-0.35-3.65c0.11-0.78,0.34-1.31,0.4,0.45
						c0.21-2.55-0.15-2.26,0.08-4.45c0.04-0.24,0.06-0.13,0.07,0.09l-0.12-2.49c0.09,0.49,0.29-0.41,0.23,1.12
						c0.24-4.47-0.31-7.21,0-8.89l0.03,0.37c-0.14-6.2-0.31-0.6-0.66-5.25l0.75-3.13l-0.31-0.61c0.01-0.64,0.03-1.91,0.16-1.67
						c-0.21-2.38-0.13,0.41-0.33-0.98c0.28-3.08-0.13-8.49,0.36-9.19c-0.23-1.11-0.18,2.95-0.34-0.34c0.52-0.94-0.09-3.8,0.15-6.62
						c0.27,0.86,0.13,3.53,0.37,0.71c-0.46-1.7,0.1-5.48,0.01-7.85c-0.36-0.11-0.15-5.16-0.27-9.15c0.12,0.25,0.2-7.5,0.33-11.2
						l0.06,0.11c-0.37-0.72-0.3-4.54-0.37-7.32c0.22,0.11,0.31,0.61,0.4,2.12l0-2.62c-0.12-0.62-0.18-1.43-0.22-3.13l0.27,0.66
						c-0.02-3.48-0.32-7.01-0.14-11.49c-0.26-0.25-0.71,3.56-0.88-1.17c0.14-0.18,0.38-0.35,0.43,0.89
						c-0.02-0.41-0.11-1.45-0.06-2.27l0.23,1.89c0.1-2.04-0.19-1.07-0.17-2.7c0.2,0.03,0.14-1.21,0.3-0.97
						c0.02,0.42-0.08,1.42,0,2.05c0.04-1.84,0.15-4.06,0.3-4.8c-0.11,0.16-0.27,0-0.29-1.35c-0.01-3.48,0.24-1.19,0.34-3.22
						c-0.14-0.84,0-3.07-0.29-3.12c0-1.02,0.14-1.21,0.22-1.6c-0.13-1.8-0.04-8.42-0.35-6.39l-0.02,0.46
						c-0.01-0.09-0.01-0.19-0.01-0.29c0,0.01,0,0,0,0.01v-0.01c-0.29-5.91,0.17-12.27,0.04-18.13l0.1,0.01
						c-0.11-3.5-0.07-7.79-0.28-10.29c0-1.03,0.18-2.44,0.3-2c-0.07-2.67-0.19-2.97-0.02-6.84c0.17,2.69,0.15-0.93,0.13,2.76
						c0.09-3.48,0.24-4.26-0.03-7.99c0.25,1.27,0.32-2.62,0.24-4.27l-0.18,2.44c-0.04-1.86-0.01-3.48,0.01-5.13l0.33,0.89
						c0.4-7.11-0.69-12.83-0.01-18.24c-0.23-1.88-0.16,3.86-0.44,2.18c0.04-3.27,0.52-6.68,0.52-7.7c0.18-4.48-0.49-4.18-0.36-8.87
						c-0.12,0.6-0.44,1.17-0.55-2.34c0.04-3.27,0.5-4.02,0.59-1.96c0.01,0.78-0.03,1.16-0.07,1.13c0.04,1.06,0.09,2.45,0.22,1.15
						l-0.12-0.42c0.12-1.62,0.11-6.13,0.3-5.07c-0.11-2.47-0.19-1.06-0.26,0.77c0.17-4.2,0.01-6.56,0.12-10.88
						c-0.07,0.69-0.2,1.32-0.2,0.64c0.15-6.34-0.23-2.79-0.28-7.09c0.18-2.44,0.43,0.87,0.28-3.45c0.12-2.64,0.31-0.56,0.41,0.49
						c-0.23-3.94,0.15-7.36,0.19-9.61l0.1,2.07c-0.06-1.24-0.06-2.26-0.05-3.29l-0.24,1.18c0.04-1.22,0.04-2.25,0.14-2.23
						c-0.16-1.26-0.39,0.96-0.61-1.53c0.12-1.62-0.13-4.95,0.19-5.51c-0.11,5.11,0.32-0.56,0.37,3.76
						c-0.04-0.83-0.04-1.85,0.01-3.07c0.04-0.18,0.07,0.17,0.08,0.51c0.28-4.89-0.36-2.25-0.35-7.31c0.18,0.64,0.34-1.17,0.3-2
						c0,2.04-0.3,0.98-0.43-0.9c0.14-3.25-0.1-3.53-0.09-5.23l-0.06,1.94c-0.18-0.66-0.15-2.28-0.21-4.55
						c0.14-0.19,0.1,2.06,0.16,1.25c-0.31-2.51,0.32-5.68,0.11-9.19c0.12-1.62,0.33-0.16,0.42-1.58c-0.23-3.93,0.24-4.26,0.05-8.39
						c-0.24,1.19-0.18,1.4-0.41-1.51l0.17,6.79l-0.35-4.36c0,2.05,0.15,4.32,0.11,5.55c-0.19-2.08-0.14-1.86-0.33-0.88
						c0.36-2.8-0.21-5.56,0.03-8.8l0.59,0.1c0.26-4.87-0.3-8.66-0.15-14.98l-0.1,2.03c-0.23-0.85-0.03-3.91-0.13-5.96
						c0.2,0.19,0.27-1.09,0.39-1.96c-0.15,0.11,0.01-4.63-0.38-5.21l0.26-2.82c0.11-5.11-0.56-5.83-0.5-10.74
						c0.21,1.48,0.35-0.75,0.51,2.54c0-1.64,0.04-3.11-0.1-3.14c0.12-0.96-0.27-4.55-0.08-6.05c-0.09-0.69-0.29-0.92-0.28-2.76
						c0.04-0.2,0.1,0.01,0.1,0.01c-0.1-0.01-0.13-2.88-0.35-1.27c0.62-5.05-0.04-14.12,0.48-18.51c-0.07-3.58-0.13-7.89-0.14-11.14
						c0.06,0.21,0.1,0.01,0.08,0.62c0.18-4.48-0.57-2.75-0.36-7.85c0.32-2.6,0.17,2.71,0.29,1.08c0.65-0.71-0.09-6.15,0.29-9.59
						l0.04,0.83c0.22-2.62-0.25-6.4-0.2-10.68c0,0,0.06,0.21,0.1,0.02c-0.33-2.93-0.44-8.48-0.53-12.6
						c0.25,1.28,0.13,1.87,0.39,1.09c-0.04-1.85-0.41,0.54-0.49-3.15c0.14-1.2,0.26-3.86,0.54-4.21l0.01,3.48
						c0.36-1.78-0.01-4.5,0.05-6.34l0.16,0.23c-0.05-5.33-0.44-5.41-0.42-11.14l-0.12,0.59c-0.39-3.13,0.22-2.63-0.07-5.75
						l0.39-0.95c-0.1-2.07-0.38-7.24-0.46-10.95c0.29,2.1,0.44,6.44,0.62,9.12c0-2.05-0.03-6.96-0.22-8.03
						c0.04,0.83,0.13,1.87,0.07,2.68c-0.31-2.51-0.46-5.82-0.46-9.9c0.77,0.72,0.19-10.64,0.79-13.6
						c-0.28-7.22,0.12-14.33,0.08-22.74c-0.6,2.98-0.02-2.46-0.63-1.94c-0.04-1.96-0.03-2.71,0.01-2.88l0.37-5.94
						c0.18-1.41,0.13,1.86,0.27,1.68c0.05-4.29,0.26-1.8,0.42-4.64c-0.22,0.58-0.31-1.49-0.23-3.94l-0.28,3.44
						c-0.33-6,0.51-5.18,0.19-11.23l0.19,1.91c-0.11-3.1,0-11.44-0.49-14.48c0.07-0.55,0.24-1.27,0.28,0.09
						c0.07-7.41-0.52-16.5-0.22-22.26l0.15,0.56c-0.04-1.38-0.28-2.41-0.13-4.14c0.06,0.09,0.15,0.56,0.16-0.08
						c-0.05-0.73-0.26-3.67-0.17-5.51l0.17,1.57c0.2-7.23-0.41-11.1-0.51-17.16c0.44,0.02,0.58-5.67,0.65-8.51l0.06,0.1
						c0.05-8.42-0.36-14.3-0.54-22.1c0.48-4.84,0.2-16.39,0.47-24.17c-0.08,1.19-0.34-0.19-0.39-1.58c0.09-1.83-0.31-5.05,0.1-4.76
						l-0.01,0.65c0.4-1.38,0.29-5.13,0.3-8.06l-0.53-0.48c0.77-7.66-0.28-20.07,0.41-24.25c-0.13-1.85-0.13-4.14-0.26-5.97l0.28,0.1
						c0.07-5.12,0.11-7.68,0.04-14.01l0.2,1.29c0.02-3.57-0.82-4.51-0.83-7.8l0.42-0.99c-0.01-6.23,0.36-12.54-0.02-18.69
						c0.06,0.1,0.18,0.28,0.2,1.29c0.01-2.93,0.29-11.34-0.29-10.28c0.38-0.07,0.04-6.43-0.13-9.79l0.28,0.52
						c-0.36-2.84-0.45-2.93-0.55-6.9c0.04-0.94,0.22-0.82,0.15,0.42c0.15-3.13-0.26-2.44-0.12-6.24l0.18,1.41
						c0.02-3.22-0.07-2.97-0.28-4.74c-0.11-2.03,0.07-6.11,0.32-6.59c-0.15-0.43-0.36-2.2-0.29-4.1c0.1-0.26,0.15,0.44,0.18,0.78
						c0.19-5.39-0.32-8.01-0.05-11.72c0.09-0.08,0.14-0.32,0.17-0.63c-0.01,4.28-0.02,7.73-0.04,7.4c0.26,0,0.3-3.46,0.66-0.71
						c-0.19-2.78-0.61-7.52-0.49-10.89c0.02-0.16,0.05-0.32,0.09-0.45l0.03,0.35c0.03-0.78,0-1.47-0.04-2.13
						c0.04-1.08,0.07-1.76,0.08-2.79c0.21-0.4,0.11-3.96,0.12-5.69c-0.28,0.14-0.24-2.11-0.47,0c0.02-0.27,0.03,0.33,0.05,1.47
						c0.01,0.26,0.01,0.56,0.03,0.74c-0.01-0.03-0.02-0.07-0.02-0.12c0.01,1.13,0.01,2.61,0.02,4.29c-0.14-1.36-0.26-2.79-0.11-4.69
						c-0.18-0.88-0.37-1.86-0.45-2.41c0.39-2.36,0.6-6.91,0.85-7.54c-0.16-5.26-0.1-12.4-0.63-15.71c-0.07-1.5,0.15-1.72,0.23-2.28
						c0.05,0.86,0.04,1.89,0.12,2.36c-0.14-2.99-0.05-8.87-0.42-9.58c0.17-3.77,0.34,2.12,0.28-3.06l0.11,0.7
						c0.59-10.2-0.94-16.58-0.18-27.88c-0.05,0.78-0.07,1.17-0.13,1.33C8.86,82.39,8.21,68.72,8.74,56
						c0.11-3.61-0.13-4.01-0.31-6.21L8.73,49l-0.35-3.77c-0.26-5.35,0.74-9.26,0.26-16.03l-0.2,0.87c0.04-2.43-0.12-7.7,0.11-7.3
						c-0.04-0.25-0.21-0.8-0.11-1.75l0.16-0.07l-0.27-5.97c0.11-4.63,0.63,0.72,0.66-6.03C8.93,6.43,8.53,1.79,8.43,2.74
						C8.42,3.75,8.33,5.33,8.17,5.4L8.09,3.1C7.62,2.69,7.15,0.92,6.82,6.56l0.28,3.93l-0.23,1.27L6.86,8.45
						c-0.21,1.88-0.02,3.07,0.1,4.4c-0.12,0.32-0.2,0.87-0.25,1.65l0.44,3.86c-0.18,0.47-0.36-1.73-0.46,0.86
						c0.21,1.81,0.41-1.73,0.54,1.26c-0.21,1.88-0.38,1.33-0.2,3.54c-0.12,0.31-0.2-0.16-0.25-1.03c0.14,1.96,0.06,5.2,0.31,6.21
						c-0.26,1.96,0.07,6.63-0.37,6.44c0.11,0.62,0.35,3.46,0.36,5.26c-0.53-3.3-0.03,6.75-0.6,5.88c0.47,2.44,0.21,8.81,0.47,13.13
						c-0.04-0.24-0.11-0.72-0.09-1.1c-0.04,2.43-0.18,3.14-0.27,4.7c0.39,0.31,0.48,4.1,0.72,6.14c-0.38,2.98-0.46-1.81-0.82-0.87
						c0.32-0.15,0.32,5.18,0.58,4.17c-0.23,2.28-0.11,1.96-0.44,3.14c0.49,0.4,0.08,2.12,0.38,4.01c-0.24,3.3-0.46,0.85-0.31,4.47
						C6.58,86.29,6.4,83.07,6.4,83.07z M7.25,169.27C7.25,169.27,7.25,169.27,7.25,169.27c-0.01-0.74-0.02-1.38-0.02-1.78
						C7.23,167.86,7.24,168.37,7.25,169.27z M7.26,176.51c0.01-0.88,0.01-1.98,0.01-3.14c0.1-0.25,0.2,0.02,0.19,0.75
						C7.39,173.72,7.34,175.43,7.26,176.51z M9.2,161.19c0.04,1.15-0.02,1.53-0.07,1.69c0-0.54-0.01-1.17-0.03-2.01
						c-0.01-0.03-0.02-0.1-0.03-0.14C9.12,160.85,9.17,160.97,9.2,161.19z"/>
					<path class="st0" d="M8.83,159.13c-0.01-0.17-0.02-0.26-0.02-0.47c-0.02,0.23-0.05,0.46-0.06,0.68
						c0.03,0.14,0.06,0.28,0.09,0.41C8.84,159.54,8.84,159.32,8.83,159.13z"/>
					<path class="st0" d="M8.42,815.77l0.01-0.15c-0.01,0.13-0.02,0.24-0.04,0.32C8.4,815.84,8.41,815.84,8.42,815.77z"/>
					<polygon class="st0" points="6.72,276.54 6.79,276.53 6.73,275.89 					"/>
					<path class="st0" d="M7.45,855.67c-0.02,0.08-0.05,0.23-0.07,0.52C7.4,856.17,7.43,855.94,7.45,855.67z"/>
					<path class="st0" d="M7.39,872.9l-0.1,2.44C7.35,874.28,7.37,873.51,7.39,872.9z"/>
					<path class="st0" d="M7.25,886.15c0.05,0.17,0.09,0.22,0.12,0.26c0-0.01,0-0.02,0-0.03L7.25,886.15z"/>
					<path class="st0" d="M6.92,675.47c0-0.18-0.01-0.35-0.01-0.51C6.85,673.76,6.87,674.58,6.92,675.47z"/>
					<path class="st0" d="M7.58,738.17c-0.05-0.67-0.1-1.32-0.13-2.02C7.42,737.27,7.42,738.14,7.58,738.17z"/>
					<path class="st0" d="M6.58,605.46C6.58,605.47,6.58,605.46,6.58,605.46c0-0.14,0-0.27,0-0.42L6.58,605.46z"/>
					<path class="st0" d="M7.45,733.24c-0.06,1.12-0.04,2.05,0,2.92C7.46,735.24,7.49,734.16,7.45,733.24z"/>
					<path class="st0" d="M7.12,943.58l-0.01,0.64c0.02-0.01,0.03,0.03,0.05,0.08L7.12,943.58z"/>
					<path class="st0" d="M7.16,944.29L7.19,945C7.19,944.68,7.19,944.39,7.16,944.29z"/>
					<path class="st0" d="M7.26,946.49L7.19,945C7.19,945.52,7.18,946.16,7.26,946.49z"/>
					<path class="st0" d="M7.25,926.04l-0.1-0.2C7.17,925.95,7.21,926.02,7.25,926.04z"/>
					<path class="st0" d="M7.22,920.71c-0.02,1.27-0.22,3.19-0.15,4.96l0.08,0.17C7,925,7.4,921.92,7.22,920.71z"/>
					<path class="st0" d="M8.48,898.46l-0.08,4.47c0.11-0.78,0.25-1.81,0.28,0.22C9.01,897.52,8.44,904.31,8.48,898.46z"/>
					<path class="st0" d="M8.64,884.61c0.05,2.4,0.16-0.03,0.22,0.1C8.76,883.19,8.74,882.82,8.64,884.61z"/>
					<path class="st0" d="M8.64,784.52l0.26,0.24C8.86,782.91,8.8,784.74,8.64,784.52z"/>
					<polygon class="st0" points="7.32,765.39 7.16,767.19 7.4,768.04 					"/>
					<polygon class="st0" points="9.14,754.09 9.18,754.89 9.09,751.81 					"/>
					<path class="st0" d="M9.05,585.99l-0.31,0.56C8.79,587.8,9.15,588.06,9.05,585.99z"/>
					<path class="st0" d="M8.73,513.42c0.16-0.79,0.26-2.83,0.1-4.09C8.81,510.96,8.69,512.59,8.73,513.42z"/>
					<polygon class="st0" points="9.24,295.78 9.35,297.24 9.26,294.49 					"/>
				</g>
			</g>
		</g>
	</g>
</g>
</svg>
